<svg width="1440" height="166" viewBox="0 0 1440 166" fill="none" xmlns="http://www.w3.org/2000/svg">
<rect width="1440" height="166" fill="white"/>
<path d="M294.94 61.436V74H292.42V65.828L289.054 74H287.146L283.762 65.828V74H281.242V61.436H284.104L288.1 70.778L292.096 61.436H294.94ZM306.971 64.028L300.797 78.716H298.115L300.275 73.748L296.279 64.028H299.105L301.679 70.994L304.289 64.028H306.971ZM319.099 74L316.327 69.104H315.139V74H312.619V61.436H317.335C318.307 61.436 319.135 61.61 319.819 61.958C320.503 62.294 321.013 62.756 321.349 63.344C321.697 63.92 321.871 64.568 321.871 65.288C321.871 66.116 321.631 66.866 321.151 67.538C320.671 68.198 319.957 68.654 319.009 68.906L322.015 74H319.099ZM315.139 67.214H317.245C317.929 67.214 318.439 67.052 318.775 66.728C319.111 66.392 319.279 65.93 319.279 65.342C319.279 64.766 319.111 64.322 318.775 64.01C318.439 63.686 317.929 63.524 317.245 63.524H315.139V67.214ZM328.578 74.162C327.618 74.162 326.754 73.952 325.986 73.532C325.218 73.1 324.612 72.494 324.168 71.714C323.736 70.934 323.52 70.034 323.52 69.014C323.52 67.994 323.742 67.094 324.186 66.314C324.642 65.534 325.26 64.934 326.04 64.514C326.82 64.082 327.69 63.866 328.65 63.866C329.61 63.866 330.48 64.082 331.26 64.514C332.04 64.934 332.652 65.534 333.096 66.314C333.552 67.094 333.78 67.994 333.78 69.014C333.78 70.034 333.546 70.934 333.078 71.714C332.622 72.494 331.998 73.1 331.206 73.532C330.426 73.952 329.55 74.162 328.578 74.162ZM328.578 71.966C329.034 71.966 329.46 71.858 329.856 71.642C330.264 71.414 330.588 71.078 330.828 70.634C331.068 70.19 331.188 69.65 331.188 69.014C331.188 68.066 330.936 67.34 330.432 66.836C329.94 66.32 329.334 66.062 328.614 66.062C327.894 66.062 327.288 66.32 326.796 66.836C326.316 67.34 326.076 68.066 326.076 69.014C326.076 69.962 326.31 70.694 326.778 71.21C327.258 71.714 327.858 71.966 328.578 71.966ZM338.149 60.68V74H335.629V60.68H338.149ZM349.908 68.798C349.908 69.158 349.884 69.482 349.836 69.77H342.546C342.606 70.49 342.858 71.054 343.302 71.462C343.746 71.87 344.292 72.074 344.94 72.074C345.876 72.074 346.542 71.672 346.938 70.868H349.656C349.368 71.828 348.816 72.62 348 73.244C347.184 73.856 346.182 74.162 344.994 74.162C344.034 74.162 343.17 73.952 342.402 73.532C341.646 73.1 341.052 72.494 340.62 71.714C340.2 70.934 339.99 70.034 339.99 69.014C339.99 67.982 340.2 67.076 340.62 66.296C341.04 65.516 341.628 64.916 342.384 64.496C343.14 64.076 344.01 63.866 344.994 63.866C345.942 63.866 346.788 64.07 347.532 64.478C348.288 64.886 348.87 65.468 349.278 66.224C349.698 66.968 349.908 67.826 349.908 68.798ZM347.298 68.078C347.286 67.43 347.052 66.914 346.596 66.53C346.14 66.134 345.582 65.936 344.922 65.936C344.298 65.936 343.77 66.128 343.338 66.512C342.918 66.884 342.66 67.406 342.564 68.078H347.298Z" fill="#778295"/>
<path d="M287.44 116.168C286.272 116.168 285.216 115.968 284.272 115.568C283.344 115.168 282.608 114.592 282.064 113.84C281.52 113.088 281.24 112.2 281.224 111.176H284.824C284.872 111.864 285.112 112.408 285.544 112.808C285.992 113.208 286.6 113.408 287.368 113.408C288.152 113.408 288.768 113.224 289.216 112.856C289.664 112.472 289.888 111.976 289.888 111.368C289.888 110.872 289.736 110.464 289.432 110.144C289.128 109.824 288.744 109.576 288.28 109.4C287.832 109.208 287.208 109 286.408 108.776C285.32 108.456 284.432 108.144 283.744 107.84C283.072 107.52 282.488 107.048 281.992 106.424C281.512 105.784 281.272 104.936 281.272 103.88C281.272 102.888 281.52 102.024 282.016 101.288C282.512 100.552 283.208 99.992 284.104 99.608C285 99.208 286.024 99.008 287.176 99.008C288.904 99.008 290.304 99.432 291.376 100.28C292.464 101.112 293.064 102.28 293.176 103.784H289.48C289.448 103.208 289.2 102.736 288.736 102.368C288.288 101.984 287.688 101.792 286.936 101.792C286.28 101.792 285.752 101.96 285.352 102.296C284.968 102.632 284.776 103.12 284.776 103.76C284.776 104.208 284.92 104.584 285.208 104.888C285.512 105.176 285.88 105.416 286.312 105.608C286.76 105.784 287.384 105.992 288.184 106.232C289.272 106.552 290.16 106.872 290.848 107.192C291.536 107.512 292.128 107.992 292.624 108.632C293.12 109.272 293.368 110.112 293.368 111.152C293.368 112.048 293.136 112.88 292.672 113.648C292.208 114.416 291.528 115.032 290.632 115.496C289.736 115.944 288.672 116.168 287.44 116.168ZM302.185 116.216C300.905 116.216 299.753 115.936 298.729 115.376C297.705 114.8 296.897 113.992 296.305 112.952C295.729 111.912 295.441 110.712 295.441 109.352C295.441 107.992 295.737 106.792 296.329 105.752C296.937 104.712 297.761 103.912 298.801 103.352C299.841 102.776 301.001 102.488 302.281 102.488C303.561 102.488 304.721 102.776 305.761 103.352C306.801 103.912 307.617 104.712 308.209 105.752C308.817 106.792 309.121 107.992 309.121 109.352C309.121 110.712 308.809 111.912 308.185 112.952C307.577 113.992 306.745 114.8 305.689 115.376C304.649 115.936 303.481 116.216 302.185 116.216ZM302.185 113.288C302.793 113.288 303.361 113.144 303.889 112.856C304.433 112.552 304.865 112.104 305.185 111.512C305.505 110.92 305.665 110.2 305.665 109.352C305.665 108.088 305.329 107.12 304.657 106.448C304.001 105.76 303.193 105.416 302.233 105.416C301.273 105.416 300.465 105.76 299.809 106.448C299.169 107.12 298.849 108.088 298.849 109.352C298.849 110.616 299.161 111.592 299.785 112.28C300.425 112.952 301.225 113.288 302.185 113.288ZM317.682 105.464H315.354V116H311.946V105.464H310.434V102.704H311.946V102.032C311.946 100.4 312.41 99.2 313.338 98.432C314.266 97.664 315.666 97.304 317.538 97.352V100.184C316.722 100.168 316.154 100.304 315.834 100.592C315.514 100.88 315.354 101.4 315.354 102.152V102.704H317.682V105.464ZM323.771 105.464V111.896C323.771 112.344 323.875 112.672 324.083 112.88C324.307 113.072 324.675 113.168 325.187 113.168H326.747V116H324.635C321.803 116 320.387 114.624 320.387 111.872V105.464H318.803V102.704H320.387V99.416H323.771V102.704H326.747V105.464H323.771ZM347.596 102.704L343.708 116H340.084L337.66 106.712L335.236 116H331.588L327.676 102.704H331.084L333.436 112.832L335.98 102.704H339.532L342.028 112.808L344.38 102.704H347.596ZM348.55 109.304C348.55 107.96 348.814 106.768 349.342 105.728C349.886 104.688 350.614 103.888 351.526 103.328C352.454 102.768 353.486 102.488 354.622 102.488C355.614 102.488 356.478 102.688 357.214 103.088C357.966 103.488 358.566 103.992 359.014 104.6V102.704H362.398V116H359.014V114.056C358.582 114.68 357.982 115.2 357.214 115.616C356.462 116.016 355.59 116.216 354.598 116.216C353.478 116.216 352.454 115.928 351.526 115.352C350.614 114.776 349.886 113.968 349.342 112.928C348.814 111.872 348.55 110.664 348.55 109.304ZM359.014 109.352C359.014 108.536 358.854 107.84 358.534 107.264C358.214 106.672 357.782 106.224 357.238 105.92C356.694 105.6 356.11 105.44 355.486 105.44C354.862 105.44 354.286 105.592 353.758 105.896C353.23 106.2 352.798 106.648 352.462 107.24C352.142 107.816 351.982 108.504 351.982 109.304C351.982 110.104 352.142 110.808 352.462 111.416C352.798 112.008 353.23 112.464 353.758 112.784C354.302 113.104 354.878 113.264 355.486 113.264C356.11 113.264 356.694 113.112 357.238 112.808C357.782 112.488 358.214 112.04 358.534 111.464C358.854 110.872 359.014 110.168 359.014 109.352ZM369.039 104.768C369.471 104.064 370.031 103.512 370.719 103.112C371.423 102.712 372.223 102.512 373.119 102.512V106.04H372.231C371.175 106.04 370.375 106.288 369.831 106.784C369.303 107.28 369.039 108.144 369.039 109.376V116H365.679V102.704H369.039V104.768ZM387.743 109.064C387.743 109.544 387.711 109.976 387.647 110.36H377.927C378.007 111.32 378.343 112.072 378.935 112.616C379.527 113.16 380.255 113.432 381.119 113.432C382.367 113.432 383.255 112.896 383.783 111.824H387.407C387.023 113.104 386.287 114.16 385.199 114.992C384.111 115.808 382.775 116.216 381.191 116.216C379.911 116.216 378.759 115.936 377.735 115.376C376.727 114.8 375.935 113.992 375.359 112.952C374.799 111.912 374.519 110.712 374.519 109.352C374.519 107.976 374.799 106.768 375.359 105.728C375.919 104.688 376.703 103.888 377.711 103.328C378.719 102.768 379.879 102.488 381.191 102.488C382.455 102.488 383.583 102.76 384.575 103.304C385.583 103.848 386.359 104.624 386.903 105.632C387.463 106.624 387.743 107.768 387.743 109.064ZM384.263 108.104C384.247 107.24 383.935 106.552 383.327 106.04C382.719 105.512 381.975 105.248 381.095 105.248C380.263 105.248 379.559 105.504 378.983 106.016C378.423 106.512 378.079 107.208 377.951 108.104H384.263ZM399.274 101.96V106.16H404.914V108.824H399.274V113.264H405.634V116H395.914V99.224H405.634V101.96H399.274ZM416.055 102.512C417.639 102.512 418.919 103.016 419.895 104.024C420.871 105.016 421.359 106.408 421.359 108.2V116H417.999V108.656C417.999 107.6 417.735 106.792 417.207 106.232C416.679 105.656 415.959 105.368 415.047 105.368C414.119 105.368 413.383 105.656 412.839 106.232C412.311 106.792 412.047 107.6 412.047 108.656V116H408.687V102.704H412.047V104.36C412.495 103.784 413.063 103.336 413.751 103.016C414.455 102.68 415.223 102.512 416.055 102.512ZM429.762 102.488C430.754 102.488 431.626 102.688 432.378 103.088C433.13 103.472 433.722 103.976 434.154 104.6V102.704H437.538V116.096C437.538 117.328 437.29 118.424 436.794 119.384C436.298 120.36 435.554 121.128 434.562 121.688C433.57 122.264 432.37 122.552 430.962 122.552C429.074 122.552 427.522 122.112 426.306 121.232C425.106 120.352 424.426 119.152 424.266 117.632H427.602C427.778 118.24 428.154 118.72 428.73 119.072C429.322 119.44 430.034 119.624 430.866 119.624C431.842 119.624 432.634 119.328 433.242 118.736C433.85 118.16 434.154 117.28 434.154 116.096V114.032C433.722 114.656 433.122 115.176 432.354 115.592C431.602 116.008 430.738 116.216 429.762 116.216C428.642 116.216 427.618 115.928 426.69 115.352C425.762 114.776 425.026 113.968 424.482 112.928C423.954 111.872 423.69 110.664 423.69 109.304C423.69 107.96 423.954 106.768 424.482 105.728C425.026 104.688 425.754 103.888 426.666 103.328C427.594 102.768 428.626 102.488 429.762 102.488ZM434.154 109.352C434.154 108.536 433.994 107.84 433.674 107.264C433.354 106.672 432.922 106.224 432.378 105.92C431.834 105.6 431.25 105.44 430.626 105.44C430.002 105.44 429.426 105.592 428.898 105.896C428.37 106.2 427.938 106.648 427.602 107.24C427.282 107.816 427.122 108.504 427.122 109.304C427.122 110.104 427.282 110.808 427.602 111.416C427.938 112.008 428.37 112.464 428.898 112.784C429.442 113.104 430.018 113.264 430.626 113.264C431.25 113.264 431.834 113.112 432.378 112.808C432.922 112.488 433.354 112.04 433.674 111.464C433.994 110.872 434.154 110.168 434.154 109.352ZM442.524 101.12C441.932 101.12 441.436 100.936 441.036 100.568C440.652 100.184 440.46 99.712 440.46 99.152C440.46 98.592 440.652 98.128 441.036 97.76C441.436 97.376 441.932 97.184 442.524 97.184C443.116 97.184 443.604 97.376 443.988 97.76C444.388 98.128 444.588 98.592 444.588 99.152C444.588 99.712 444.388 100.184 443.988 100.568C443.604 100.936 443.116 101.12 442.524 101.12ZM444.18 102.704V116H440.82V102.704H444.18ZM454.868 102.512C456.452 102.512 457.732 103.016 458.708 104.024C459.684 105.016 460.172 106.408 460.172 108.2V116H456.812V108.656C456.812 107.6 456.548 106.792 456.02 106.232C455.492 105.656 454.772 105.368 453.86 105.368C452.932 105.368 452.196 105.656 451.652 106.232C451.124 106.792 450.86 107.6 450.86 108.656V116H447.5V102.704H450.86V104.36C451.308 103.784 451.876 103.336 452.564 103.016C453.268 102.68 454.036 102.512 454.868 102.512ZM475.727 109.064C475.727 109.544 475.695 109.976 475.631 110.36H465.911C465.991 111.32 466.327 112.072 466.919 112.616C467.511 113.16 468.239 113.432 469.103 113.432C470.351 113.432 471.239 112.896 471.767 111.824H475.391C475.007 113.104 474.271 114.16 473.183 114.992C472.095 115.808 470.759 116.216 469.175 116.216C467.895 116.216 466.743 115.936 465.719 115.376C464.711 114.8 463.919 113.992 463.343 112.952C462.783 111.912 462.503 110.712 462.503 109.352C462.503 107.976 462.783 106.768 463.343 105.728C463.903 104.688 464.687 103.888 465.695 103.328C466.703 102.768 467.863 102.488 469.175 102.488C470.439 102.488 471.567 102.76 472.559 103.304C473.567 103.848 474.343 104.624 474.887 105.632C475.447 106.624 475.727 107.768 475.727 109.064ZM472.247 108.104C472.231 107.24 471.919 106.552 471.311 106.04C470.703 105.512 469.959 105.248 469.079 105.248C468.247 105.248 467.543 105.504 466.967 106.016C466.407 106.512 466.063 107.208 465.935 108.104H472.247ZM490.539 109.064C490.539 109.544 490.507 109.976 490.443 110.36H480.723C480.803 111.32 481.139 112.072 481.731 112.616C482.323 113.16 483.051 113.432 483.915 113.432C485.163 113.432 486.051 112.896 486.579 111.824H490.203C489.819 113.104 489.083 114.16 487.995 114.992C486.907 115.808 485.571 116.216 483.987 116.216C482.707 116.216 481.555 115.936 480.531 115.376C479.523 114.8 478.731 113.992 478.155 112.952C477.595 111.912 477.315 110.712 477.315 109.352C477.315 107.976 477.595 106.768 478.155 105.728C478.715 104.688 479.499 103.888 480.507 103.328C481.515 102.768 482.675 102.488 483.987 102.488C485.251 102.488 486.379 102.76 487.371 103.304C488.379 103.848 489.155 104.624 489.699 105.632C490.259 106.624 490.539 107.768 490.539 109.064ZM487.059 108.104C487.043 107.24 486.731 106.552 486.123 106.04C485.515 105.512 484.771 105.248 483.891 105.248C483.059 105.248 482.355 105.504 481.779 106.016C481.219 106.512 480.875 107.208 480.747 108.104H487.059ZM496.352 104.768C496.784 104.064 497.344 103.512 498.032 103.112C498.736 102.712 499.536 102.512 500.432 102.512V106.04H499.544C498.488 106.04 497.688 106.288 497.144 106.784C496.616 107.28 496.352 108.144 496.352 109.376V116H492.992V102.704H496.352V104.768Z" fill="#151E2C"/>
<path d="M699.08 74.126C698.204 74.126 697.412 73.976 696.704 73.676C696.008 73.376 695.456 72.944 695.048 72.38C694.64 71.816 694.43 71.15 694.418 70.382H697.118C697.154 70.898 697.334 71.306 697.658 71.606C697.994 71.906 698.45 72.056 699.026 72.056C699.614 72.056 700.076 71.918 700.412 71.642C700.748 71.354 700.916 70.982 700.916 70.526C700.916 70.154 700.802 69.848 700.574 69.608C700.346 69.368 700.058 69.182 699.71 69.05C699.374 68.906 698.906 68.75 698.306 68.582C697.49 68.342 696.824 68.108 696.308 67.88C695.804 67.64 695.366 67.286 694.994 66.818C694.634 66.338 694.454 65.702 694.454 64.91C694.454 64.166 694.64 63.518 695.012 62.966C695.384 62.414 695.906 61.994 696.578 61.706C697.25 61.406 698.018 61.256 698.882 61.256C700.178 61.256 701.228 61.574 702.032 62.21C702.848 62.834 703.298 63.71 703.382 64.838H700.61C700.586 64.406 700.4 64.052 700.052 63.776C699.716 63.488 699.266 63.344 698.702 63.344C698.21 63.344 697.814 63.47 697.514 63.722C697.226 63.974 697.082 64.34 697.082 64.82C697.082 65.156 697.19 65.438 697.406 65.666C697.634 65.882 697.91 66.062 698.234 66.206C698.57 66.338 699.038 66.494 699.638 66.674C700.454 66.914 701.12 67.154 701.636 67.394C702.152 67.634 702.596 67.994 702.968 68.474C703.34 68.954 703.526 69.584 703.526 70.364C703.526 71.036 703.352 71.66 703.004 72.236C702.656 72.812 702.146 73.274 701.474 73.622C700.802 73.958 700.004 74.126 699.08 74.126ZM708.645 66.098V70.922C708.645 71.258 708.723 71.504 708.879 71.66C709.047 71.804 709.323 71.876 709.707 71.876H710.877V74H709.293C707.169 74 706.107 72.968 706.107 70.904V66.098H704.919V64.028H706.107V61.562H708.645V64.028H710.877V66.098H708.645ZM712.041 68.978C712.041 67.97 712.239 67.076 712.635 66.296C713.043 65.516 713.589 64.916 714.273 64.496C714.969 64.076 715.743 63.866 716.595 63.866C717.339 63.866 717.987 64.016 718.539 64.316C719.103 64.616 719.553 64.994 719.889 65.45V64.028H722.427V74H719.889V72.542C719.565 73.01 719.115 73.4 718.539 73.712C717.975 74.012 717.321 74.162 716.577 74.162C715.737 74.162 714.969 73.946 714.273 73.514C713.589 73.082 713.043 72.476 712.635 71.696C712.239 70.904 712.041 69.998 712.041 68.978ZM719.889 69.014C719.889 68.402 719.769 67.88 719.529 67.448C719.289 67.004 718.965 66.668 718.557 66.44C718.149 66.2 717.711 66.08 717.243 66.08C716.775 66.08 716.343 66.194 715.947 66.422C715.551 66.65 715.227 66.986 714.975 67.43C714.735 67.862 714.615 68.378 714.615 68.978C714.615 69.578 714.735 70.106 714.975 70.562C715.227 71.006 715.551 71.348 715.947 71.588C716.355 71.828 716.787 71.948 717.243 71.948C717.711 71.948 718.149 71.834 718.557 71.606C718.965 71.366 719.289 71.03 719.529 70.598C719.769 70.154 719.889 69.626 719.889 69.014ZM727.408 65.576C727.732 65.048 728.152 64.634 728.668 64.334C729.196 64.034 729.796 63.884 730.468 63.884V66.53H729.802C729.01 66.53 728.41 66.716 728.002 67.088C727.606 67.46 727.408 68.108 727.408 69.032V74H724.888V64.028H727.408V65.576ZM735.1 66.098V70.922C735.1 71.258 735.178 71.504 735.334 71.66C735.502 71.804 735.778 71.876 736.162 71.876H737.332V74H735.748C733.624 74 732.562 72.968 732.562 70.904V66.098H731.374V64.028H732.562V61.562H735.1V64.028H737.332V66.098H735.1ZM747.825 61.436C749.145 61.436 750.303 61.694 751.299 62.21C752.307 62.726 753.081 63.464 753.621 64.424C754.173 65.372 754.449 66.476 754.449 67.736C754.449 68.996 754.173 70.1 753.621 71.048C753.081 71.984 752.307 72.71 751.299 73.226C750.303 73.742 749.145 74 747.825 74H743.433V61.436H747.825ZM747.735 71.858C749.055 71.858 750.075 71.498 750.795 70.778C751.515 70.058 751.875 69.044 751.875 67.736C751.875 66.428 751.515 65.408 750.795 64.676C750.075 63.932 749.055 63.56 747.735 63.56H745.953V71.858H747.735ZM755.688 68.978C755.688 67.97 755.886 67.076 756.282 66.296C756.69 65.516 757.236 64.916 757.92 64.496C758.616 64.076 759.39 63.866 760.242 63.866C760.986 63.866 761.634 64.016 762.186 64.316C762.75 64.616 763.2 64.994 763.536 65.45V64.028H766.074V74H763.536V72.542C763.212 73.01 762.762 73.4 762.186 73.712C761.622 74.012 760.968 74.162 760.224 74.162C759.384 74.162 758.616 73.946 757.92 73.514C757.236 73.082 756.69 72.476 756.282 71.696C755.886 70.904 755.688 69.998 755.688 68.978ZM763.536 69.014C763.536 68.402 763.416 67.88 763.176 67.448C762.936 67.004 762.612 66.668 762.204 66.44C761.796 66.2 761.358 66.08 760.89 66.08C760.422 66.08 759.99 66.194 759.594 66.422C759.198 66.65 758.874 66.986 758.622 67.43C758.382 67.862 758.262 68.378 758.262 68.978C758.262 69.578 758.382 70.106 758.622 70.562C758.874 71.006 759.198 71.348 759.594 71.588C760.002 71.828 760.434 71.948 760.89 71.948C761.358 71.948 761.796 71.834 762.204 71.606C762.612 71.366 762.936 71.03 763.176 70.598C763.416 70.154 763.536 69.626 763.536 69.014ZM771.469 66.098V70.922C771.469 71.258 771.547 71.504 771.703 71.66C771.871 71.804 772.147 71.876 772.531 71.876H773.701V74H772.117C769.993 74 768.931 72.968 768.931 70.904V66.098H767.743V64.028H768.931V61.562H771.469V64.028H773.701V66.098H771.469ZM784.783 68.798C784.783 69.158 784.759 69.482 784.711 69.77H777.421C777.481 70.49 777.733 71.054 778.177 71.462C778.621 71.87 779.167 72.074 779.815 72.074C780.751 72.074 781.417 71.672 781.813 70.868H784.531C784.243 71.828 783.691 72.62 782.875 73.244C782.059 73.856 781.057 74.162 779.869 74.162C778.909 74.162 778.045 73.952 777.277 73.532C776.521 73.1 775.927 72.494 775.495 71.714C775.075 70.934 774.865 70.034 774.865 69.014C774.865 67.982 775.075 67.076 775.495 66.296C775.915 65.516 776.503 64.916 777.259 64.496C778.015 64.076 778.885 63.866 779.869 63.866C780.817 63.866 781.663 64.07 782.407 64.478C783.163 64.886 783.745 65.468 784.153 66.224C784.573 66.968 784.783 67.826 784.783 68.798ZM782.173 68.078C782.161 67.43 781.927 66.914 781.471 66.53C781.015 66.134 780.457 65.936 779.797 65.936C779.173 65.936 778.645 66.128 778.213 66.512C777.793 66.884 777.535 67.406 777.439 68.078H782.173Z" fill="#778295"/>
<path d="M695.828 112.208C697.364 110.928 698.588 109.864 699.5 109.016C700.412 108.152 701.172 107.256 701.78 106.328C702.388 105.4 702.692 104.488 702.692 103.592C702.692 102.776 702.5 102.136 702.116 101.672C701.732 101.208 701.14 100.976 700.34 100.976C699.54 100.976 698.924 101.248 698.492 101.792C698.06 102.32 697.836 103.048 697.82 103.976H694.556C694.62 102.056 695.188 100.6 696.26 99.608C697.348 98.616 698.724 98.12 700.388 98.12C702.212 98.12 703.612 98.608 704.588 99.584C705.564 100.544 706.052 101.816 706.052 103.4C706.052 104.648 705.716 105.84 705.044 106.976C704.372 108.112 703.604 109.104 702.74 109.952C701.876 110.784 700.748 111.792 699.356 112.976H706.436V115.76H694.58V113.264L695.828 112.208ZM708.409 112.592V109.952L716.257 98.72H720.169V109.664H722.281V112.592H720.169V116H716.809V112.592H708.409ZM717.025 102.32L712.105 109.664H717.025V102.32ZM733.804 93.272L727.324 120.344H724.036L730.516 93.272H733.804ZM736.092 107.024C736.092 104.256 736.588 102.088 737.58 100.52C738.588 98.952 740.252 98.168 742.572 98.168C744.892 98.168 746.548 98.952 747.54 100.52C748.548 102.088 749.052 104.256 749.052 107.024C749.052 109.808 748.548 111.992 747.54 113.576C746.548 115.16 744.892 115.952 742.572 115.952C740.252 115.952 738.588 115.16 737.58 113.576C736.588 111.992 736.092 109.808 736.092 107.024ZM745.74 107.024C745.74 105.84 745.66 104.848 745.5 104.048C745.356 103.232 745.052 102.568 744.588 102.056C744.14 101.544 743.468 101.288 742.572 101.288C741.676 101.288 740.996 101.544 740.532 102.056C740.084 102.568 739.78 103.232 739.62 104.048C739.476 104.848 739.404 105.84 739.404 107.024C739.404 108.24 739.476 109.264 739.62 110.096C739.764 110.912 740.068 111.576 740.532 112.088C740.996 112.584 741.676 112.832 742.572 112.832C743.468 112.832 744.148 112.584 744.612 112.088C745.076 111.576 745.38 110.912 745.524 110.096C745.668 109.264 745.74 108.24 745.74 107.024ZM751.2 101.6V98.504H756.984V116H753.528V101.6H751.2ZM769.687 93.272L763.207 120.344H759.919L766.399 93.272H769.687ZM773.031 112.208C774.567 110.928 775.791 109.864 776.703 109.016C777.615 108.152 778.375 107.256 778.983 106.328C779.591 105.4 779.895 104.488 779.895 103.592C779.895 102.776 779.703 102.136 779.319 101.672C778.935 101.208 778.343 100.976 777.543 100.976C776.743 100.976 776.127 101.248 775.695 101.792C775.263 102.32 775.039 103.048 775.023 103.976H771.759C771.823 102.056 772.391 100.6 773.463 99.608C774.551 98.616 775.927 98.12 777.591 98.12C779.415 98.12 780.815 98.608 781.791 99.584C782.767 100.544 783.255 101.816 783.255 103.4C783.255 104.648 782.919 105.84 782.247 106.976C781.575 108.112 780.807 109.104 779.943 109.952C779.079 110.784 777.951 111.792 776.559 112.976H783.639V115.76H771.783V113.264L773.031 112.208ZM785.756 107.024C785.756 104.256 786.252 102.088 787.244 100.52C788.252 98.952 789.916 98.168 792.236 98.168C794.556 98.168 796.212 98.952 797.204 100.52C798.212 102.088 798.716 104.256 798.716 107.024C798.716 109.808 798.212 111.992 797.204 113.576C796.212 115.16 794.556 115.952 792.236 115.952C789.916 115.952 788.252 115.16 787.244 113.576C786.252 111.992 785.756 109.808 785.756 107.024ZM795.404 107.024C795.404 105.84 795.324 104.848 795.164 104.048C795.02 103.232 794.716 102.568 794.252 102.056C793.804 101.544 793.132 101.288 792.236 101.288C791.34 101.288 790.66 101.544 790.196 102.056C789.748 102.568 789.444 103.232 789.284 104.048C789.14 104.848 789.068 105.84 789.068 107.024C789.068 108.24 789.14 109.264 789.284 110.096C789.428 110.912 789.732 111.576 790.196 112.088C790.66 112.584 791.34 112.832 792.236 112.832C793.132 112.832 793.812 112.584 794.276 112.088C794.74 111.576 795.044 110.912 795.188 110.096C795.332 109.264 795.404 108.24 795.404 107.024ZM802.328 112.208C803.864 110.928 805.088 109.864 806 109.016C806.912 108.152 807.672 107.256 808.28 106.328C808.888 105.4 809.192 104.488 809.192 103.592C809.192 102.776 809 102.136 808.616 101.672C808.232 101.208 807.64 100.976 806.84 100.976C806.04 100.976 805.424 101.248 804.992 101.792C804.56 102.32 804.336 103.048 804.32 103.976H801.056C801.12 102.056 801.688 100.6 802.76 99.608C803.848 98.616 805.224 98.12 806.888 98.12C808.712 98.12 810.112 98.608 811.088 99.584C812.064 100.544 812.552 101.816 812.552 103.4C812.552 104.648 812.216 105.84 811.544 106.976C810.872 108.112 810.104 109.104 809.24 109.952C808.376 110.784 807.248 111.792 805.856 112.976H812.936V115.76H801.08V113.264L802.328 112.208ZM815.101 103.112C815.181 101.512 815.741 100.28 816.781 99.416C817.837 98.536 819.221 98.096 820.933 98.096C822.101 98.096 823.101 98.304 823.933 98.72C824.765 99.12 825.389 99.672 825.805 100.376C826.237 101.064 826.453 101.848 826.453 102.728C826.453 103.736 826.189 104.592 825.661 105.296C825.149 105.984 824.533 106.448 823.813 106.688V106.784C824.741 107.072 825.461 107.584 825.973 108.32C826.501 109.056 826.765 110 826.765 111.152C826.765 112.112 826.541 112.968 826.093 113.72C825.661 114.472 825.013 115.064 824.149 115.496C823.301 115.912 822.277 116.12 821.077 116.12C819.269 116.12 817.797 115.664 816.661 114.752C815.525 113.84 814.925 112.496 814.861 110.72H818.125C818.157 111.504 818.421 112.136 818.917 112.616C819.429 113.08 820.125 113.312 821.005 113.312C821.821 113.312 822.445 113.088 822.877 112.64C823.325 112.176 823.549 111.584 823.549 110.864C823.549 109.904 823.245 109.216 822.637 108.8C822.029 108.384 821.085 108.176 819.805 108.176H819.109V105.416H819.805C822.077 105.416 823.213 104.656 823.213 103.136C823.213 102.448 823.005 101.912 822.589 101.528C822.189 101.144 821.605 100.952 820.837 100.952C820.085 100.952 819.501 101.16 819.085 101.576C818.685 101.976 818.453 102.488 818.389 103.112H815.101Z" fill="#151E2C"/>
<path d="M1023.76 63.47V66.62H1027.99V68.618H1023.76V71.948H1028.53V74H1021.24V61.418H1028.53V63.47H1023.76ZM1036.35 63.884C1037.54 63.884 1038.5 64.262 1039.23 65.018C1039.96 65.762 1040.33 66.806 1040.33 68.15V74H1037.81V68.492C1037.81 67.7 1037.61 67.094 1037.21 66.674C1036.82 66.242 1036.28 66.026 1035.59 66.026C1034.9 66.026 1034.34 66.242 1033.94 66.674C1033.54 67.094 1033.34 67.7 1033.34 68.492V74H1030.82V64.028H1033.34V65.27C1033.68 64.838 1034.1 64.502 1034.62 64.262C1035.15 64.01 1035.72 63.884 1036.35 63.884ZM1042.07 68.978C1042.07 67.97 1042.27 67.076 1042.67 66.296C1043.08 65.516 1043.63 64.916 1044.32 64.496C1045.02 64.076 1045.79 63.866 1046.65 63.866C1047.29 63.866 1047.91 64.01 1048.5 64.298C1049.09 64.574 1049.56 64.946 1049.9 65.414V60.68H1052.46V74H1049.9V72.524C1049.59 73.016 1049.15 73.412 1048.59 73.712C1048.03 74.012 1047.37 74.162 1046.63 74.162C1045.79 74.162 1045.02 73.946 1044.32 73.514C1043.63 73.082 1043.08 72.476 1042.67 71.696C1042.27 70.904 1042.07 69.998 1042.07 68.978ZM1049.92 69.014C1049.92 68.402 1049.8 67.88 1049.56 67.448C1049.32 67.004 1049 66.668 1048.59 66.44C1048.18 66.2 1047.74 66.08 1047.28 66.08C1046.81 66.08 1046.38 66.194 1045.98 66.422C1045.58 66.65 1045.26 66.986 1045.01 67.43C1044.77 67.862 1044.65 68.378 1044.65 68.978C1044.65 69.578 1044.77 70.106 1045.01 70.562C1045.26 71.006 1045.58 71.348 1045.98 71.588C1046.39 71.828 1046.82 71.948 1047.28 71.948C1047.74 71.948 1048.18 71.834 1048.59 71.606C1049 71.366 1049.32 71.03 1049.56 70.598C1049.8 70.154 1049.92 69.626 1049.92 69.014ZM1063.6 61.436C1064.92 61.436 1066.08 61.694 1067.08 62.21C1068.08 62.726 1068.86 63.464 1069.4 64.424C1069.95 65.372 1070.23 66.476 1070.23 67.736C1070.23 68.996 1069.95 70.1 1069.4 71.048C1068.86 71.984 1068.08 72.71 1067.08 73.226C1066.08 73.742 1064.92 74 1063.6 74H1059.21V61.436H1063.6ZM1063.51 71.858C1064.83 71.858 1065.85 71.498 1066.57 70.778C1067.29 70.058 1067.65 69.044 1067.65 67.736C1067.65 66.428 1067.29 65.408 1066.57 64.676C1065.85 63.932 1064.83 63.56 1063.51 63.56H1061.73V71.858H1063.51ZM1071.47 68.978C1071.47 67.97 1071.66 67.076 1072.06 66.296C1072.47 65.516 1073.01 64.916 1073.7 64.496C1074.39 64.076 1075.17 63.866 1076.02 63.866C1076.76 63.866 1077.41 64.016 1077.96 64.316C1078.53 64.616 1078.98 64.994 1079.31 65.45V64.028H1081.85V74H1079.31V72.542C1078.99 73.01 1078.54 73.4 1077.96 73.712C1077.4 74.012 1076.75 74.162 1076 74.162C1075.16 74.162 1074.39 73.946 1073.7 73.514C1073.01 73.082 1072.47 72.476 1072.06 71.696C1071.66 70.904 1071.47 69.998 1071.47 68.978ZM1079.31 69.014C1079.31 68.402 1079.19 67.88 1078.95 67.448C1078.71 67.004 1078.39 66.668 1077.98 66.44C1077.57 66.2 1077.14 66.08 1076.67 66.08C1076.2 66.08 1075.77 66.194 1075.37 66.422C1074.98 66.65 1074.65 66.986 1074.4 67.43C1074.16 67.862 1074.04 68.378 1074.04 68.978C1074.04 69.578 1074.16 70.106 1074.4 70.562C1074.65 71.006 1074.98 71.348 1075.37 71.588C1075.78 71.828 1076.21 71.948 1076.67 71.948C1077.14 71.948 1077.57 71.834 1077.98 71.606C1078.39 71.366 1078.71 71.03 1078.95 70.598C1079.19 70.154 1079.31 69.626 1079.31 69.014ZM1087.25 66.098V70.922C1087.25 71.258 1087.32 71.504 1087.48 71.66C1087.65 71.804 1087.92 71.876 1088.31 71.876H1089.48V74H1087.89C1085.77 74 1084.71 72.968 1084.71 70.904V66.098H1083.52V64.028H1084.71V61.562H1087.25V64.028H1089.48V66.098H1087.25ZM1100.56 68.798C1100.56 69.158 1100.54 69.482 1100.49 69.77H1093.2C1093.26 70.49 1093.51 71.054 1093.95 71.462C1094.4 71.87 1094.94 72.074 1095.59 72.074C1096.53 72.074 1097.19 71.672 1097.59 70.868H1100.31C1100.02 71.828 1099.47 72.62 1098.65 73.244C1097.84 73.856 1096.83 74.162 1095.65 74.162C1094.69 74.162 1093.82 73.952 1093.05 73.532C1092.3 73.1 1091.7 72.494 1091.27 71.714C1090.85 70.934 1090.64 70.034 1090.64 69.014C1090.64 67.982 1090.85 67.076 1091.27 66.296C1091.69 65.516 1092.28 64.916 1093.04 64.496C1093.79 64.076 1094.66 63.866 1095.65 63.866C1096.59 63.866 1097.44 64.07 1098.18 64.478C1098.94 64.886 1099.52 65.468 1099.93 66.224C1100.35 66.968 1100.56 67.826 1100.56 68.798ZM1097.95 68.078C1097.94 67.43 1097.7 66.914 1097.25 66.53C1096.79 66.134 1096.23 65.936 1095.57 65.936C1094.95 65.936 1094.42 66.128 1093.99 66.512C1093.57 66.884 1093.31 67.406 1093.22 68.078H1097.95Z" fill="#778295"/>
<path d="M1021.27 107.024C1021.27 104.256 1021.77 102.088 1022.76 100.52C1023.77 98.952 1025.43 98.168 1027.75 98.168C1030.07 98.168 1031.73 98.952 1032.72 100.52C1033.73 102.088 1034.23 104.256 1034.23 107.024C1034.23 109.808 1033.73 111.992 1032.72 113.576C1031.73 115.16 1030.07 115.952 1027.75 115.952C1025.43 115.952 1023.77 115.16 1022.76 113.576C1021.77 111.992 1021.27 109.808 1021.27 107.024ZM1030.92 107.024C1030.92 105.84 1030.84 104.848 1030.68 104.048C1030.54 103.232 1030.23 102.568 1029.77 102.056C1029.32 101.544 1028.65 101.288 1027.75 101.288C1026.86 101.288 1026.18 101.544 1025.71 102.056C1025.26 102.568 1024.96 103.232 1024.8 104.048C1024.66 104.848 1024.58 105.84 1024.58 107.024C1024.58 108.24 1024.66 109.264 1024.8 110.096C1024.94 110.912 1025.25 111.576 1025.71 112.088C1026.18 112.584 1026.86 112.832 1027.75 112.832C1028.65 112.832 1029.33 112.584 1029.79 112.088C1030.26 111.576 1030.56 110.912 1030.7 110.096C1030.85 109.264 1030.92 108.24 1030.92 107.024ZM1037.84 112.208C1039.38 110.928 1040.6 109.864 1041.52 109.016C1042.43 108.152 1043.19 107.256 1043.8 106.328C1044.4 105.4 1044.71 104.488 1044.71 103.592C1044.71 102.776 1044.52 102.136 1044.13 101.672C1043.75 101.208 1043.16 100.976 1042.36 100.976C1041.56 100.976 1040.94 101.248 1040.51 101.792C1040.08 102.32 1039.85 103.048 1039.84 103.976H1036.57C1036.64 102.056 1037.2 100.6 1038.28 99.608C1039.36 98.616 1040.74 98.12 1042.4 98.12C1044.23 98.12 1045.63 98.608 1046.6 99.584C1047.58 100.544 1048.07 101.816 1048.07 103.4C1048.07 104.648 1047.73 105.84 1047.06 106.976C1046.39 108.112 1045.62 109.104 1044.76 109.952C1043.89 110.784 1042.76 111.792 1041.37 112.976H1048.45V115.76H1036.6V113.264L1037.84 112.208ZM1059.95 93.272L1053.47 120.344H1050.18L1056.66 93.272H1059.95ZM1062.24 107.024C1062.24 104.256 1062.74 102.088 1063.73 100.52C1064.74 98.952 1066.4 98.168 1068.72 98.168C1071.04 98.168 1072.7 98.952 1073.69 100.52C1074.7 102.088 1075.2 104.256 1075.2 107.024C1075.2 109.808 1074.7 111.992 1073.69 113.576C1072.7 115.16 1071.04 115.952 1068.72 115.952C1066.4 115.952 1064.74 115.16 1063.73 113.576C1062.74 111.992 1062.24 109.808 1062.24 107.024ZM1071.89 107.024C1071.89 105.84 1071.81 104.848 1071.65 104.048C1071.5 103.232 1071.2 102.568 1070.74 102.056C1070.29 101.544 1069.62 101.288 1068.72 101.288C1067.82 101.288 1067.14 101.544 1066.68 102.056C1066.23 102.568 1065.93 103.232 1065.77 104.048C1065.62 104.848 1065.55 105.84 1065.55 107.024C1065.55 108.24 1065.62 109.264 1065.77 110.096C1065.91 110.912 1066.22 111.576 1066.68 112.088C1067.14 112.584 1067.82 112.832 1068.72 112.832C1069.62 112.832 1070.3 112.584 1070.76 112.088C1071.22 111.576 1071.53 110.912 1071.67 110.096C1071.82 109.264 1071.89 108.24 1071.89 107.024ZM1077.8 103.112C1077.88 101.512 1078.44 100.28 1079.48 99.416C1080.54 98.536 1081.92 98.096 1083.64 98.096C1084.8 98.096 1085.8 98.304 1086.64 98.72C1087.47 99.12 1088.09 99.672 1088.51 100.376C1088.94 101.064 1089.16 101.848 1089.16 102.728C1089.16 103.736 1088.89 104.592 1088.36 105.296C1087.85 105.984 1087.24 106.448 1086.52 106.688V106.784C1087.44 107.072 1088.16 107.584 1088.68 108.32C1089.2 109.056 1089.47 110 1089.47 111.152C1089.47 112.112 1089.24 112.968 1088.8 113.72C1088.36 114.472 1087.72 115.064 1086.85 115.496C1086 115.912 1084.98 116.12 1083.78 116.12C1081.97 116.12 1080.5 115.664 1079.36 114.752C1078.23 113.84 1077.63 112.496 1077.56 110.72H1080.83C1080.86 111.504 1081.12 112.136 1081.62 112.616C1082.13 113.08 1082.83 113.312 1083.71 113.312C1084.52 113.312 1085.15 113.088 1085.58 112.64C1086.03 112.176 1086.25 111.584 1086.25 110.864C1086.25 109.904 1085.95 109.216 1085.34 108.8C1084.73 108.384 1083.79 108.176 1082.51 108.176H1081.81V105.416H1082.51C1084.78 105.416 1085.92 104.656 1085.92 103.136C1085.92 102.448 1085.71 101.912 1085.29 101.528C1084.89 101.144 1084.31 100.952 1083.54 100.952C1082.79 100.952 1082.2 101.16 1081.79 101.576C1081.39 101.976 1081.16 102.488 1081.09 103.112H1077.8ZM1101.51 93.272L1095.03 120.344H1091.74L1098.22 93.272H1101.51ZM1104.85 112.208C1106.39 110.928 1107.61 109.864 1108.52 109.016C1109.44 108.152 1110.2 107.256 1110.8 106.328C1111.41 105.4 1111.72 104.488 1111.72 103.592C1111.72 102.776 1111.52 102.136 1111.14 101.672C1110.76 101.208 1110.16 100.976 1109.36 100.976C1108.56 100.976 1107.95 101.248 1107.52 101.792C1107.08 102.32 1106.86 103.048 1106.84 103.976H1103.58C1103.64 102.056 1104.21 100.6 1105.28 99.608C1106.37 98.616 1107.75 98.12 1109.41 98.12C1111.24 98.12 1112.64 98.608 1113.61 99.584C1114.59 100.544 1115.08 101.816 1115.08 103.4C1115.08 104.648 1114.74 105.84 1114.07 106.976C1113.4 108.112 1112.63 109.104 1111.76 109.952C1110.9 110.784 1109.77 111.792 1108.38 112.976H1115.46V115.76H1103.6V113.264L1104.85 112.208ZM1117.58 107.024C1117.58 104.256 1118.07 102.088 1119.06 100.52C1120.07 98.952 1121.74 98.168 1124.06 98.168C1126.38 98.168 1128.03 98.952 1129.02 100.52C1130.03 102.088 1130.54 104.256 1130.54 107.024C1130.54 109.808 1130.03 111.992 1129.02 113.576C1128.03 115.16 1126.38 115.952 1124.06 115.952C1121.74 115.952 1120.07 115.16 1119.06 113.576C1118.07 111.992 1117.58 109.808 1117.58 107.024ZM1127.22 107.024C1127.22 105.84 1127.14 104.848 1126.98 104.048C1126.84 103.232 1126.54 102.568 1126.07 102.056C1125.62 101.544 1124.95 101.288 1124.06 101.288C1123.16 101.288 1122.48 101.544 1122.02 102.056C1121.57 102.568 1121.26 103.232 1121.1 104.048C1120.96 104.848 1120.89 105.84 1120.89 107.024C1120.89 108.24 1120.96 109.264 1121.1 110.096C1121.25 110.912 1121.55 111.576 1122.02 112.088C1122.48 112.584 1123.16 112.832 1124.06 112.832C1124.95 112.832 1125.63 112.584 1126.1 112.088C1126.56 111.576 1126.86 110.912 1127.01 110.096C1127.15 109.264 1127.22 108.24 1127.22 107.024ZM1134.15 112.208C1135.68 110.928 1136.91 109.864 1137.82 109.016C1138.73 108.152 1139.49 107.256 1140.1 106.328C1140.71 105.4 1141.01 104.488 1141.01 103.592C1141.01 102.776 1140.82 102.136 1140.44 101.672C1140.05 101.208 1139.46 100.976 1138.66 100.976C1137.86 100.976 1137.24 101.248 1136.81 101.792C1136.38 102.32 1136.16 103.048 1136.14 103.976H1132.88C1132.94 102.056 1133.51 100.6 1134.58 99.608C1135.67 98.616 1137.04 98.12 1138.71 98.12C1140.53 98.12 1141.93 98.608 1142.91 99.584C1143.88 100.544 1144.37 101.816 1144.37 103.4C1144.37 104.648 1144.04 105.84 1143.36 106.976C1142.69 108.112 1141.92 109.104 1141.06 109.952C1140.2 110.784 1139.07 111.792 1137.68 112.976H1144.76V115.76H1132.9V113.264L1134.15 112.208ZM1146.92 103.112C1147 101.512 1147.56 100.28 1148.6 99.416C1149.66 98.536 1151.04 98.096 1152.75 98.096C1153.92 98.096 1154.92 98.304 1155.75 98.72C1156.59 99.12 1157.21 99.672 1157.63 100.376C1158.06 101.064 1158.27 101.848 1158.27 102.728C1158.27 103.736 1158.01 104.592 1157.48 105.296C1156.97 105.984 1156.35 106.448 1155.63 106.688V106.784C1156.56 107.072 1157.28 107.584 1157.79 108.32C1158.32 109.056 1158.59 110 1158.59 111.152C1158.59 112.112 1158.36 112.968 1157.91 113.72C1157.48 114.472 1156.83 115.064 1155.97 115.496C1155.12 115.912 1154.1 116.12 1152.9 116.12C1151.09 116.12 1149.62 115.664 1148.48 114.752C1147.35 113.84 1146.75 112.496 1146.68 110.72H1149.95C1149.98 111.504 1150.24 112.136 1150.74 112.616C1151.25 113.08 1151.95 113.312 1152.83 113.312C1153.64 113.312 1154.27 113.088 1154.7 112.64C1155.15 112.176 1155.37 111.584 1155.37 110.864C1155.37 109.904 1155.07 109.216 1154.46 108.8C1153.85 108.384 1152.91 108.176 1151.63 108.176H1150.93V105.416H1151.63C1153.9 105.416 1155.03 104.656 1155.03 103.136C1155.03 102.448 1154.83 101.912 1154.41 101.528C1154.01 101.144 1153.43 100.952 1152.66 100.952C1151.91 100.952 1151.32 101.16 1150.91 101.576C1150.51 101.976 1150.27 102.488 1150.21 103.112H1146.92Z" fill="#151E2C"/>
</svg>
