<svg width="51" height="38" viewBox="0 0 51 38" fill="none" xmlns="http://www.w3.org/2000/svg">
<path d="M50.5 6.375C50.5 2.92334 47.7017 0.125 44.25 0.125H6.75C3.29834 0.125 0.5 2.92334 0.5 6.375V31.5C0.5 34.9517 3.29834 37.75 6.75 37.75H44.25C47.7017 37.75 50.5 34.9517 50.5 31.5V6.375ZM6.75 2.625H44.25C46.3179 2.625 48 4.3501 48 6.41797V29.3394L36.8945 22.2056C35.2363 21.0415 32.9756 21.2671 31.5796 22.7358L28.0337 26.4307L19.5859 21.1899C18.1274 20.2881 16.2632 20.3833 14.9038 21.4287L3 29.3125V6.41797C3 4.3501 4.68213 2.625 6.75 2.625ZM3.06445 32.2905L16.3257 23.4966C16.3555 23.4766 16.3848 23.4502 16.4131 23.4277C16.9463 23.0039 17.688 22.9595 18.2681 23.3169L26.2642 28.2979L19.4922 35.375H6.75C4.94092 35.3628 3.39502 34.0688 3.06445 32.2905ZM44.25 35.375H22.957L33.3833 24.4883C33.9312 23.9058 34.8242 23.8154 35.478 24.2759C35.4927 24.2861 35.5078 24.291 35.523 24.3008L47.9356 32.2935C47.6045 34.0713 46.0581 35.3643 44.25 35.375Z" fill="#0635C9"/>
</svg>
