<svg width="42" height="44" viewBox="0 0 42 44" fill="none" xmlns="http://www.w3.org/2000/svg">
<path d="M39.9008 27.7927C39.879 27.7226 39.7533 27.2707 39.5866 26.7294L39.2386 25.8014C39.9177 24.7791 39.9298 23.8705 39.8403 23.3533C39.7384 22.688 39.4228 22.0739 38.9413 21.6036C38.4049 21.043 37.3053 20.463 35.7634 20.0304L34.9538 19.8056C34.949 19.7694 34.9104 17.8965 34.8789 17.0917C34.8523 16.5117 34.804 15.603 34.5213 14.7089C34.1829 13.4957 33.6005 12.442 32.8683 11.7581C34.8862 9.67013 36.1428 7.36705 36.1404 5.39263C36.1332 1.59605 31.469 0.44088 25.7198 2.82371L24.5042 3.34088C24.4993 3.33605 22.3026 1.18038 22.2712 1.1538C15.7123 -4.56404 -4.77615 18.2155 1.77785 23.7472L3.21093 24.958C2.8238 25.9949 2.68637 27.1084 2.80977 28.2084C2.96685 29.7333 3.74985 31.1905 5.02102 32.3191C6.22935 33.3873 7.82193 34.0688 9.36135 34.0664C11.9109 39.9437 17.7351 43.5445 24.5646 43.75C31.8919 43.9675 38.0399 40.5285 40.6209 34.3515C40.7877 33.919 41.503 31.9663 41.503 30.2432C41.5006 28.508 40.5218 27.7903 39.9008 27.7927ZM9.92202 32.4134C9.69877 32.4533 9.47204 32.4703 9.24535 32.4641C7.03168 32.4013 4.6416 30.41 4.40477 28.0489C4.14135 25.4389 5.47535 23.4282 7.83885 22.9545C8.11918 22.8941 8.46235 22.8627 8.82968 22.8796C10.154 22.957 12.1018 23.972 12.5489 26.855C12.9453 29.4046 12.3169 32.0074 9.92202 32.4134ZM7.4546 21.3885C6.01778 21.6541 4.74092 22.4689 3.89485 23.6602C3.41877 23.2639 2.53668 22.5002 2.38202 22.2005C1.11568 19.7984 3.76193 15.1245 5.6131 12.4855C10.1782 5.96538 17.3363 1.03296 20.652 1.9223C21.1885 2.07696 22.972 4.14805 22.972 4.14805C22.972 4.14805 19.6612 5.9823 16.5872 8.54396C12.4523 11.734 9.32268 16.3643 7.4546 21.3885ZM30.6812 31.437C30.7061 31.4266 30.7268 31.408 30.74 31.3843C30.7531 31.3607 30.758 31.3333 30.7537 31.3065C30.7522 31.2904 30.7475 31.2748 30.7398 31.2605C30.7321 31.2462 30.7217 31.2336 30.7091 31.2235C30.6964 31.2134 30.6819 31.2059 30.6663 31.2014C30.6507 31.197 30.6344 31.1958 30.6183 31.1978C30.6183 31.1978 27.1528 31.7101 23.8783 30.5139C24.2335 29.3563 25.1857 29.7695 26.6188 29.888C28.8464 30.0194 31.0804 29.7777 33.2283 29.1726C34.7098 28.7449 36.6576 27.9063 38.1704 26.7125C38.6828 27.8362 38.8616 29.0687 38.8616 29.0687C38.8616 29.0687 39.2555 28.9986 39.5866 29.2016C39.9008 29.395 40.1279 29.7937 39.9733 30.8232C39.6518 32.7517 38.835 34.3153 37.4551 35.7556C36.5965 36.6874 35.5732 37.4526 34.4367 38.0128C33.8052 38.3455 33.1472 38.6251 32.4695 38.849C27.2761 40.543 21.9594 38.6798 20.246 34.6754C20.1079 34.3687 19.9932 34.052 19.9028 33.728C19.173 31.089 19.7917 27.928 21.7274 25.9319V25.9295C21.8507 25.8038 21.9739 25.6564 21.9739 25.4679C21.9739 25.3132 21.8724 25.1465 21.7878 25.0256C21.1112 24.0445 18.7598 22.3697 19.2334 19.129C19.5693 16.7993 21.6066 15.1608 23.5061 15.2575L23.9894 15.2865C24.8111 15.3348 25.5289 15.4387 26.2055 15.4701C27.3414 15.516 28.3588 15.3517 29.5671 14.3464C29.9755 14.0032 30.3018 13.7108 30.8528 13.619C30.9108 13.6045 31.0558 13.5585 31.3434 13.5682C31.6383 13.5801 31.9246 13.6711 32.1723 13.8316C33.1389 14.4745 33.2767 16.0356 33.3298 17.1787C33.3588 17.8288 33.4386 19.4069 33.4628 19.8564C33.5256 20.8907 33.7987 21.0381 34.3448 21.217C34.6566 21.3233 34.9442 21.3958 35.3671 21.519C36.6455 21.8743 37.4092 22.244 37.8877 22.7105C38.1357 22.9507 38.2957 23.2673 38.342 23.6095C38.4991 24.7139 37.4889 26.0769 34.8258 27.3142C31.9113 28.6651 28.3757 29.0083 25.9348 28.7352L25.0793 28.6385C23.1218 28.3775 22.0126 30.9005 23.1847 32.6285C23.9411 33.7425 25.9977 34.4675 28.0591 34.4675C32.7788 34.4724 36.4087 32.4569 37.762 30.712L37.8683 30.5598C37.9312 30.4583 37.8804 30.4075 37.7959 30.4607C36.6963 31.2147 31.7953 34.2114 26.5559 33.3124C26.5559 33.3124 25.9179 33.206 25.3379 32.9789C24.8788 32.8049 23.9097 32.3554 23.7937 31.3645C28.0156 32.6768 30.6812 31.4395 30.6812 31.437ZM15.8912 12.4614C17.5152 10.586 19.5138 8.95238 21.3069 8.03888C21.3673 8.00505 21.4326 8.07513 21.3988 8.13071C21.1788 8.51648 21.0099 8.92915 20.8961 9.35838C20.8816 9.42363 20.9517 9.4768 21.0073 9.43571C22.1238 8.67688 24.0619 7.86246 25.7633 7.76096C25.7798 7.75811 25.7969 7.7611 25.8115 7.76941C25.8261 7.77773 25.8373 7.79085 25.8433 7.80655C25.8493 7.82225 25.8497 7.83954 25.8443 7.85546C25.839 7.87139 25.8283 7.88497 25.814 7.89388C25.5321 8.11013 25.2802 8.36287 25.0648 8.64546C25.031 8.6938 25.0624 8.76388 25.1229 8.76388C26.3167 8.77113 28.0011 9.1868 29.0958 9.80305C29.1684 9.84655 29.1152 9.98913 29.0354 9.9698C27.3728 9.59038 24.6588 9.30038 21.8362 9.98913C19.3132 10.603 17.3895 11.5503 15.9903 12.5725C15.9178 12.6209 15.8332 12.5266 15.8912 12.4614Z" fill="#151E2C"/>
</svg>
