<svg width="48" height="50" viewBox="0 0 48 50" fill="none" xmlns="http://www.w3.org/2000/svg">
<path d="M47.2817 22.9167C47.2491 22.6833 47.2006 22.4524 47.1367 22.2255L46.6848 22.7959C46.6064 21.7535 46.4218 20.7219 46.1338 19.717C45.7731 18.4578 45.2949 17.2353 44.7056 16.0655C44.346 15.2826 43.9088 14.5377 43.4006 13.8421C43.1371 13.4313 42.91 13.1268 42.8665 13.0639C41.9916 11.6405 41.0129 10.7754 39.8481 9.14653C39.1101 7.89563 38.6064 6.5206 38.3618 5.08895C38.0355 5.94785 37.7904 6.83542 37.6296 7.74003C36.4623 6.55828 35.4231 5.69553 34.8069 5.13003C31.745 2.27112 32.1171 0.804199 32.1171 0.804199C32.1171 0.804199 26.4041 7.17212 28.874 13.7986C29.7299 16.0544 31.2081 18.0211 33.137 19.4705C35.5271 21.4353 38.096 22.9795 39.4421 26.9646C38.3616 24.8711 36.7144 23.1234 34.6885 21.921C35.2999 23.3759 35.6068 24.8984 35.5851 26.474C35.5841 27.893 35.3035 29.2979 34.7592 30.6084C34.2149 31.9188 33.4177 33.1091 32.4131 34.1113C31.4085 35.1134 30.2162 35.9077 28.9044 36.4488C27.5926 36.9898 26.187 37.267 24.7681 37.2645C23.9671 37.2691 23.1682 37.1807 22.3876 37.001C21.4568 36.8246 20.556 36.5162 19.7124 36.0851C18.4439 35.3318 17.346 34.3228 16.4886 33.1223V33.1054C16.5468 33.1311 16.6075 33.1505 16.6698 33.1634C17.1217 33.3253 17.5688 33.4485 18.0401 33.5331C19.8695 33.9166 21.7742 33.6935 23.4655 32.8975C25.1765 31.9405 26.2181 31.2421 27.0518 31.5104C27.8928 31.7738 28.5211 30.9787 27.9532 30.1449C27.4535 29.4979 26.7862 28.9999 26.0237 28.7051C25.2611 28.4103 24.4324 28.3299 23.6274 28.4726C21.9091 28.7167 20.3407 29.9202 18.1174 28.7554C17.9555 28.678 17.8346 28.5959 17.6921 28.5113C17.5471 28.4098 18.1802 28.6345 18.0159 28.533C17.5249 28.2924 17.0545 28.012 16.6094 27.6945C16.5876 27.6727 16.9598 27.7984 16.9139 27.7742C16.3323 27.3799 15.8332 26.8759 15.4446 26.2904C15.2521 25.9311 15.1435 25.5329 15.1268 25.1257C15.11 24.7185 15.1856 24.3128 15.3479 23.9389C15.5565 23.5644 15.8778 23.265 16.2662 23.0835L16.7302 23.3251C16.7302 23.3251 16.5876 23.0835 16.5248 22.9602C16.549 22.9409 16.5707 22.9602 16.6094 22.9409C16.8559 23.0424 17.4045 23.3251 17.709 23.5112C17.913 23.6182 18.0887 23.7723 18.2213 23.9607C18.2213 23.9607 18.3252 23.9196 18.2431 23.6997C18.1437 23.4326 17.955 23.208 17.709 23.0641H17.7525C17.9772 23.1874 18.1826 23.3106 18.3832 23.4677C18.5669 23.0182 18.6708 22.5784 18.6539 22.1071C18.6683 21.8506 18.633 21.5938 18.55 21.3507C18.4654 21.1888 18.5911 21.1259 18.7312 21.2903C18.7085 21.1624 18.6669 21.0386 18.608 20.9229C18.608 20.9229 18.6901 20.7997 18.7312 20.7731C18.8351 20.6765 18.9342 20.5749 19.0599 20.5145C19.768 20.0674 20.5075 19.676 21.2832 19.369C21.7058 19.2034 22.1211 19.0195 22.5278 18.818C22.6897 18.7165 22.8347 18.615 22.9773 18.4894C23.509 18.0423 23.857 17.4309 23.9754 16.7542C23.9996 16.6575 23.9996 16.5754 23.9996 16.4956V16.3289C23.9174 15.9809 23.3253 15.7368 20.2465 15.4299C19.7147 15.3486 19.2199 15.1085 18.827 14.7411C18.4342 14.3736 18.1615 13.896 18.0449 13.3709V13.3878C17.9994 13.5038 17.9582 13.6215 17.9216 13.7406C17.9603 13.6125 18.0014 13.5135 18.0449 13.3878V13.3709C18.6342 11.8352 19.6897 10.5227 21.0633 9.61778C21.1382 9.55737 20.7588 9.6347 20.8386 9.5767C21.0851 9.45345 21.3485 9.32778 21.6336 9.22628C21.7762 9.18278 21.0416 8.90245 20.3891 8.96045C19.9964 8.98825 19.6106 9.07797 19.246 9.22628C19.4079 9.10787 19.855 8.94112 19.7535 8.94112C18.9249 9.08722 18.1303 9.38459 17.4093 9.81837C17.4093 9.73862 17.4335 9.67337 17.4528 9.61778C16.8799 9.85868 16.3801 10.2453 16.0028 10.7391V10.4684C15.7485 10.6758 15.5102 10.902 15.2899 11.1451H15.2706C13.5739 10.4883 11.7239 10.3339 9.94181 10.7004L9.92248 10.6787H9.94181C9.57053 10.3824 9.254 10.0233 9.00656 9.61778L8.98239 9.6347L8.94615 9.59603C8.81806 9.4317 8.7214 9.2287 8.59089 9.00153C8.49423 8.85653 8.41206 8.67287 8.31056 8.49403C8.31056 8.49403 8.31056 8.4747 8.29123 8.4747C8.26706 8.4747 8.22839 8.66078 8.21148 8.59312C7.89723 7.7827 7.75009 6.9171 7.77889 6.04837H7.75956C7.24782 6.38647 6.86608 6.88835 6.67689 7.47178C6.57781 7.67962 6.51498 7.78112 6.45456 7.90437V7.8367L6.51256 7.53462C6.49806 7.55637 6.49806 7.5757 6.47148 7.59503C6.32706 7.76381 6.2052 7.95065 6.10898 8.15087C6.00309 8.33609 5.91953 8.53322 5.86006 8.73812V8.63662C5.86006 8.55445 5.88181 8.4312 5.86006 8.4747L5.83831 8.53028C5.17913 9.98422 4.7659 11.5375 4.61548 13.1268C4.57681 13.4119 4.57681 13.6778 4.57681 13.9412V13.9847C4.11042 14.4935 3.69443 15.0463 3.33464 15.6353C2.14924 17.6358 1.26799 19.8014 0.719811 22.0612C1.10889 21.2057 1.57531 20.3671 2.12873 19.5938C1.07372 22.2501 0.53327 25.0828 0.536144 27.941C0.719811 27.1048 0.944561 26.2879 1.20798 25.4711C1.04684 28.8484 1.6991 32.2149 3.10989 35.2876C5.00265 39.5395 8.1561 43.1072 12.1434 45.5077C13.7538 46.61 15.5208 47.4638 17.3851 48.0404C17.6316 48.1201 17.8999 48.2192 18.1416 48.3038C18.0594 48.2603 17.999 48.2192 17.9192 48.2023C20.1294 48.8611 22.4231 49.1972 24.7294 49.2004C32.9146 49.2004 35.6068 46.078 35.8702 45.7735C36.2569 45.4086 36.6025 44.9736 36.8272 44.4661C36.9916 44.4081 37.1341 44.3453 37.2985 44.2631L37.3976 44.2244C37.5208 44.1616 37.5788 44.1423 37.5788 44.1423C38.8185 43.5614 39.9844 42.8345 41.0516 41.9769C42.6368 40.827 43.7703 39.1592 44.2561 37.262C44.5581 36.5709 44.5581 35.812 44.3141 35.1015C44.4349 34.8985 44.5412 34.7125 44.5581 34.6714C46.3175 31.852 47.3158 28.6247 47.4557 25.3044V25.024C47.4605 24.3178 47.4022 23.6126 47.2817 22.9167Z" fill="#0252CD"/>
</svg>
