<svg width="1440" height="394" viewBox="0 0 1440 394" fill="none" xmlns="http://www.w3.org/2000/svg">
<rect width="1440" height="394" fill="white"/>
<path d="M294.028 77.228L291.298 87H288.988L287.154 80.042L285.236 87L282.94 87.014L280.308 77.228H282.408L284.13 84.816L286.118 77.228H288.302L290.178 84.774L291.914 77.228H294.028ZM294.804 83.094C294.804 82.31 294.958 81.6147 295.266 81.008C295.583 80.4013 296.008 79.9347 296.54 79.608C297.081 79.2813 297.683 79.118 298.346 79.118C298.924 79.118 299.428 79.2347 299.858 79.468C300.296 79.7013 300.646 79.9953 300.908 80.35V79.244H302.882V87H300.908V85.866C300.656 86.23 300.306 86.5333 299.858 86.776C299.419 87.0093 298.91 87.126 298.332 87.126C297.678 87.126 297.081 86.958 296.54 86.622C296.008 86.286 295.583 85.8147 295.266 85.208C294.958 84.592 294.804 83.8873 294.804 83.094ZM300.908 83.122C300.908 82.646 300.814 82.24 300.628 81.904C300.441 81.5587 300.189 81.2973 299.872 81.12C299.554 80.9333 299.214 80.84 298.85 80.84C298.486 80.84 298.15 80.9287 297.842 81.106C297.534 81.2833 297.282 81.5447 297.086 81.89C296.899 82.226 296.806 82.6273 296.806 83.094C296.806 83.5607 296.899 83.9713 297.086 84.326C297.282 84.6713 297.534 84.9373 297.842 85.124C298.159 85.3107 298.495 85.404 298.85 85.404C299.214 85.404 299.554 85.3153 299.872 85.138C300.189 84.9513 300.441 84.69 300.628 84.354C300.814 84.0087 300.908 83.598 300.908 83.122ZM312.216 79.244L307.414 90.668H305.328L307.008 86.804L303.9 79.244H306.098L308.1 84.662L310.13 79.244H312.216ZM320.053 87.126C319.306 87.126 318.634 86.9627 318.037 86.636C317.439 86.3 316.968 85.8287 316.623 85.222C316.287 84.6153 316.119 83.9153 316.119 83.122C316.119 82.3287 316.291 81.6287 316.637 81.022C316.991 80.4153 317.472 79.9487 318.079 79.622C318.685 79.286 319.362 79.118 320.109 79.118C320.855 79.118 321.532 79.286 322.139 79.622C322.745 79.9487 323.221 80.4153 323.567 81.022C323.921 81.6287 324.099 82.3287 324.099 83.122C324.099 83.9153 323.917 84.6153 323.553 85.222C323.198 85.8287 322.713 86.3 322.097 86.636C321.49 86.9627 320.809 87.126 320.053 87.126ZM320.053 85.418C320.407 85.418 320.739 85.334 321.047 85.166C321.364 84.9887 321.616 84.7273 321.803 84.382C321.989 84.0367 322.083 83.6167 322.083 83.122C322.083 82.3847 321.887 81.82 321.495 81.428C321.112 81.0267 320.641 80.826 320.081 80.826C319.521 80.826 319.049 81.0267 318.667 81.428C318.293 81.82 318.107 82.3847 318.107 83.122C318.107 83.8593 318.289 84.4287 318.653 84.83C319.026 85.222 319.493 85.418 320.053 85.418ZM329.092 80.854H327.734V87H325.746V80.854H324.864V79.244H325.746V78.852C325.746 77.9 326.017 77.2 326.558 76.752C327.1 76.304 327.916 76.094 329.008 76.122V77.774C328.532 77.7647 328.201 77.844 328.014 78.012C327.828 78.18 327.734 78.4833 327.734 78.922V79.244H329.092V80.854ZM344.45 79.244L342.182 87H340.068L338.654 81.582L337.24 87H335.112L332.83 79.244H334.818L336.19 85.152L337.674 79.244H339.746L341.202 85.138L342.574 79.244H344.45ZM348.955 87.126C348.208 87.126 347.536 86.9627 346.939 86.636C346.342 86.3 345.87 85.8287 345.525 85.222C345.189 84.6153 345.021 83.9153 345.021 83.122C345.021 82.3287 345.194 81.6287 345.539 81.022C345.894 80.4153 346.374 79.9487 346.981 79.622C347.588 79.286 348.264 79.118 349.011 79.118C349.758 79.118 350.434 79.286 351.041 79.622C351.648 79.9487 352.124 80.4153 352.469 81.022C352.824 81.6287 353.001 82.3287 353.001 83.122C353.001 83.9153 352.819 84.6153 352.455 85.222C352.1 85.8287 351.615 86.3 350.999 86.636C350.392 86.9627 349.711 87.126 348.955 87.126ZM348.955 85.418C349.31 85.418 349.641 85.334 349.949 85.166C350.266 84.9887 350.518 84.7273 350.705 84.382C350.892 84.0367 350.985 83.6167 350.985 83.122C350.985 82.3847 350.789 81.82 350.397 81.428C350.014 81.0267 349.543 80.826 348.983 80.826C348.423 80.826 347.952 81.0267 347.569 81.428C347.196 81.82 347.009 82.3847 347.009 83.122C347.009 83.8593 347.191 84.4287 347.555 84.83C347.928 85.222 348.395 85.418 348.955 85.418ZM356.399 80.448C356.651 80.0373 356.977 79.7153 357.379 79.482C357.789 79.2487 358.256 79.132 358.779 79.132V81.19H358.261C357.645 81.19 357.178 81.3347 356.861 81.624C356.553 81.9133 356.399 82.4173 356.399 83.136V87H354.439V79.244H356.399V80.448ZM364.691 87L362.059 83.696V87H360.099V76.64H362.059V82.534L364.663 79.244H367.211L363.795 83.136L367.239 87H364.691Z" fill="#0252CD"/>
<path d="M306.56 107.664V130H302.08V115.472L296.096 130H292.704L286.688 115.472V130H282.208V107.664H287.296L294.4 124.272L301.504 107.664H306.56ZM327.789 112.272L316.813 138.384H312.045L315.885 129.552L308.781 112.272H313.805L318.381 124.656L323.021 112.272H327.789ZM353.797 114.576C353.797 115.771 353.509 116.891 352.933 117.936C352.379 118.981 351.493 119.824 350.277 120.464C349.083 121.104 347.568 121.424 345.733 121.424H341.989V130H337.509V107.664H345.733C347.461 107.664 348.933 107.963 350.149 108.56C351.365 109.157 352.272 109.979 352.869 111.024C353.488 112.069 353.797 113.253 353.797 114.576ZM345.541 117.808C346.779 117.808 347.696 117.531 348.293 116.976C348.891 116.4 349.189 115.6 349.189 114.576C349.189 112.4 347.973 111.312 345.541 111.312H341.989V117.808H345.541ZM361.298 115.024C361.874 114.085 362.621 113.349 363.538 112.816C364.477 112.283 365.543 112.016 366.738 112.016V116.72H365.554C364.146 116.72 363.079 117.051 362.354 117.712C361.65 118.373 361.298 119.525 361.298 121.168V130H356.818V112.272H361.298V115.024ZM377.467 130.288C375.761 130.288 374.225 129.915 372.859 129.168C371.494 128.4 370.417 127.323 369.627 125.936C368.859 124.549 368.475 122.949 368.475 121.136C368.475 119.323 368.87 117.723 369.659 116.336C370.47 114.949 371.569 113.883 372.955 113.136C374.342 112.368 375.889 111.984 377.595 111.984C379.302 111.984 380.849 112.368 382.235 113.136C383.622 113.883 384.71 114.949 385.499 116.336C386.31 117.723 386.715 119.323 386.715 121.136C386.715 122.949 386.299 124.549 385.467 125.936C384.657 127.323 383.547 128.4 382.139 129.168C380.753 129.915 379.195 130.288 377.467 130.288ZM377.467 126.384C378.278 126.384 379.035 126.192 379.739 125.808C380.465 125.403 381.041 124.805 381.467 124.016C381.894 123.227 382.107 122.267 382.107 121.136C382.107 119.451 381.659 118.16 380.763 117.264C379.889 116.347 378.811 115.888 377.531 115.888C376.251 115.888 375.174 116.347 374.299 117.264C373.446 118.16 373.019 119.451 373.019 121.136C373.019 122.821 373.435 124.123 374.267 125.04C375.121 125.936 376.187 126.384 377.467 126.384ZM388.69 121.136C388.69 119.301 389.063 117.701 389.81 116.336C390.556 114.949 391.591 113.883 392.914 113.136C394.236 112.368 395.751 111.984 397.458 111.984C399.655 111.984 401.468 112.539 402.898 113.648C404.348 114.736 405.319 116.272 405.81 118.256H400.978C400.722 117.488 400.284 116.891 399.666 116.464C399.068 116.016 398.322 115.792 397.426 115.792C396.146 115.792 395.132 116.261 394.386 117.2C393.639 118.117 393.266 119.429 393.266 121.136C393.266 122.821 393.639 124.133 394.386 125.072C395.132 125.989 396.146 126.448 397.426 126.448C399.239 126.448 400.423 125.637 400.978 124.016H405.81C405.319 125.936 404.348 127.461 402.898 128.592C401.447 129.723 399.634 130.288 397.458 130.288C395.751 130.288 394.236 129.915 392.914 129.168C391.591 128.4 390.556 127.333 389.81 125.968C389.063 124.581 388.69 122.971 388.69 121.136ZM425.412 120.752C425.412 121.392 425.369 121.968 425.284 122.48H412.324C412.43 123.76 412.878 124.763 413.668 125.488C414.457 126.213 415.428 126.576 416.58 126.576C418.244 126.576 419.428 125.861 420.132 124.432H424.964C424.452 126.139 423.47 127.547 422.02 128.656C420.569 129.744 418.788 130.288 416.676 130.288C414.969 130.288 413.433 129.915 412.068 129.168C410.724 128.4 409.668 127.323 408.9 125.936C408.153 124.549 407.78 122.949 407.78 121.136C407.78 119.301 408.153 117.691 408.9 116.304C409.646 114.917 410.692 113.851 412.036 113.104C413.38 112.357 414.926 111.984 416.676 111.984C418.361 111.984 419.865 112.347 421.188 113.072C422.532 113.797 423.566 114.832 424.292 116.176C425.038 117.499 425.412 119.024 425.412 120.752ZM420.772 119.472C420.75 118.32 420.334 117.403 419.524 116.72C418.713 116.016 417.721 115.664 416.548 115.664C415.438 115.664 414.5 116.005 413.732 116.688C412.985 117.349 412.526 118.277 412.356 119.472H420.772ZM435.306 130.288C433.855 130.288 432.554 130.032 431.402 129.52C430.25 128.987 429.332 128.272 428.65 127.376C427.988 126.48 427.626 125.488 427.562 124.4H432.074C432.159 125.083 432.49 125.648 433.066 126.096C433.663 126.544 434.399 126.768 435.274 126.768C436.127 126.768 436.788 126.597 437.258 126.256C437.748 125.915 437.994 125.477 437.994 124.944C437.994 124.368 437.695 123.941 437.098 123.664C436.522 123.365 435.594 123.045 434.314 122.704C432.991 122.384 431.903 122.053 431.05 121.712C430.218 121.371 429.492 120.848 428.874 120.144C428.276 119.44 427.978 118.491 427.978 117.296C427.978 116.315 428.255 115.419 428.81 114.608C429.386 113.797 430.196 113.157 431.242 112.688C432.308 112.219 433.556 111.984 434.986 111.984C437.098 111.984 438.783 112.517 440.042 113.584C441.3 114.629 441.994 116.048 442.122 117.84H437.834C437.77 117.136 437.471 116.581 436.938 116.176C436.426 115.749 435.732 115.536 434.858 115.536C434.047 115.536 433.418 115.685 432.97 115.984C432.543 116.283 432.33 116.699 432.33 117.232C432.33 117.829 432.628 118.288 433.226 118.608C433.823 118.907 434.751 119.216 436.01 119.536C437.29 119.856 438.346 120.187 439.178 120.528C440.01 120.869 440.724 121.403 441.322 122.128C441.94 122.832 442.26 123.771 442.282 124.944C442.282 125.968 441.994 126.885 441.418 127.696C440.863 128.507 440.052 129.147 438.986 129.616C437.94 130.064 436.714 130.288 435.306 130.288ZM452.583 130.288C451.133 130.288 449.831 130.032 448.679 129.52C447.527 128.987 446.61 128.272 445.927 127.376C445.266 126.48 444.903 125.488 444.839 124.4H449.351C449.437 125.083 449.767 125.648 450.343 126.096C450.941 126.544 451.677 126.768 452.551 126.768C453.405 126.768 454.066 126.597 454.535 126.256C455.026 125.915 455.271 125.477 455.271 124.944C455.271 124.368 454.973 123.941 454.375 123.664C453.799 123.365 452.871 123.045 451.591 122.704C450.269 122.384 449.181 122.053 448.327 121.712C447.495 121.371 446.77 120.848 446.151 120.144C445.554 119.44 445.255 118.491 445.255 117.296C445.255 116.315 445.533 115.419 446.087 114.608C446.663 113.797 447.474 113.157 448.519 112.688C449.586 112.219 450.834 111.984 452.263 111.984C454.375 111.984 456.061 112.517 457.319 113.584C458.578 114.629 459.271 116.048 459.399 117.84H455.111C455.047 117.136 454.749 116.581 454.215 116.176C453.703 115.749 453.01 115.536 452.135 115.536C451.325 115.536 450.695 115.685 450.247 115.984C449.821 116.283 449.607 116.699 449.607 117.232C449.607 117.829 449.906 118.288 450.503 118.608C451.101 118.907 452.029 119.216 453.287 119.536C454.567 119.856 455.623 120.187 456.455 120.528C457.287 120.869 458.002 121.403 458.599 122.128C459.218 122.832 459.538 123.771 459.559 124.944C459.559 125.968 459.271 126.885 458.695 127.696C458.141 128.507 457.33 129.147 456.263 129.616C455.218 130.064 453.991 130.288 452.583 130.288Z" fill="#151E2C"/>
<circle cx="330" cy="226" r="50" fill="#F3F8FF"/>
<g clip-path="url(#clip0_3316_22450)">
<path d="M351.612 250.875H311.747C311.057 250.875 310.497 250.315 310.497 249.625C310.497 248.935 311.057 248.375 311.747 248.375H351.612C352.302 248.375 352.862 248.935 352.862 249.625C352.862 250.315 352.302 250.875 351.612 250.875Z" fill="#1AE5BE"/>
<path d="M316.73 230.572C316.855 230.147 317.085 229.76 317.399 229.447L339.629 207.217C341.703 205.143 345.066 205.143 347.141 207.217L348 208.076C347.895 206.827 347.351 205.657 346.464 204.772L345.373 203.681C343.299 201.607 339.936 201.607 337.861 203.681L315.63 225.911C315.317 226.224 315.087 226.611 314.961 227.036L311.624 238.336L314.686 237.492L316.73 230.572Z" fill="#D4E1F4"/>
<path d="M346.257 202.797C343.695 200.234 339.541 200.234 336.978 202.797L314.748 225.027C314.654 225.121 314.566 225.22 314.483 225.323C314.443 225.355 314.403 225.388 314.367 225.424C314.21 225.581 314.098 225.777 314.043 225.992C313.928 226.212 313.835 226.444 313.764 226.682L310.426 237.982C310.297 238.418 310.415 238.888 310.733 239.212C311.051 239.536 311.52 239.662 311.958 239.542L323.413 236.383C323.641 236.32 323.863 236.236 324.076 236.133C324.398 236.074 324.683 235.89 324.869 235.62C324.961 235.543 325.051 235.464 325.136 235.379L347.349 213.167C349.907 210.603 349.907 206.452 347.349 203.888L346.257 202.797ZM334.938 208.373L341.773 215.208L339.026 217.955L332.191 211.12L334.938 208.373ZM315.798 228.623L321.494 234.318L313.461 236.534L315.798 228.623ZM323.845 233.135L317.01 226.3L330.423 212.888L337.258 219.723L323.845 233.135ZM345.581 211.4L343.541 213.44L336.706 206.605L338.746 204.565C340.332 202.979 342.904 202.979 344.49 204.565L345.581 205.656C347.165 207.243 347.165 209.813 345.581 211.4Z" fill="#0635C9"/>
</g>
<path d="M288.982 302.04C290.448 302.04 291.735 302.327 292.842 302.9C293.962 303.473 294.822 304.293 295.422 305.36C296.035 306.413 296.342 307.64 296.342 309.04C296.342 310.44 296.035 311.667 295.422 312.72C294.822 313.76 293.962 314.567 292.842 315.14C291.735 315.713 290.448 316 288.982 316H284.102V302.04H288.982ZM288.882 313.62C290.348 313.62 291.482 313.22 292.282 312.42C293.082 311.62 293.482 310.493 293.482 309.04C293.482 307.587 293.082 306.453 292.282 305.64C291.482 304.813 290.348 304.4 288.882 304.4H286.902V313.62H288.882ZM308.738 310.22C308.738 310.62 308.711 310.98 308.658 311.3H300.558C300.624 312.1 300.904 312.727 301.398 313.18C301.891 313.633 302.498 313.86 303.218 313.86C304.258 313.86 304.998 313.413 305.438 312.52H308.458C308.138 313.587 307.524 314.467 306.618 315.16C305.711 315.84 304.598 316.18 303.278 316.18C302.211 316.18 301.251 315.947 300.398 315.48C299.558 315 298.898 314.327 298.418 313.46C297.951 312.593 297.718 311.593 297.718 310.46C297.718 309.313 297.951 308.307 298.418 307.44C298.884 306.573 299.538 305.907 300.378 305.44C301.218 304.973 302.184 304.74 303.278 304.74C304.331 304.74 305.271 304.967 306.098 305.42C306.938 305.873 307.584 306.52 308.038 307.36C308.504 308.187 308.738 309.14 308.738 310.22ZM305.838 309.42C305.824 308.7 305.564 308.127 305.058 307.7C304.551 307.26 303.931 307.04 303.198 307.04C302.504 307.04 301.918 307.253 301.438 307.68C300.971 308.093 300.684 308.673 300.578 309.42H305.838ZM315.861 307.22H313.921V316H311.081V307.22H309.821V304.92H311.081V304.36C311.081 303 311.468 302 312.241 301.36C313.015 300.72 314.181 300.42 315.741 300.46V302.82C315.061 302.807 314.588 302.92 314.321 303.16C314.055 303.4 313.921 303.833 313.921 304.46V304.92H315.861V307.22ZM319.096 303.6C318.603 303.6 318.189 303.447 317.856 303.14C317.536 302.82 317.376 302.427 317.376 301.96C317.376 301.493 317.536 301.107 317.856 300.8C318.189 300.48 318.603 300.32 319.096 300.32C319.589 300.32 319.996 300.48 320.316 300.8C320.649 301.107 320.816 301.493 320.816 301.96C320.816 302.427 320.649 302.82 320.316 303.14C319.996 303.447 319.589 303.6 319.096 303.6ZM320.476 304.92V316H317.676V304.92H320.476ZM329.382 304.76C330.702 304.76 331.769 305.18 332.582 306.02C333.396 306.847 333.802 308.007 333.802 309.5V316H331.002V309.88C331.002 309 330.782 308.327 330.342 307.86C329.902 307.38 329.302 307.14 328.542 307.14C327.769 307.14 327.156 307.38 326.702 307.86C326.262 308.327 326.042 309 326.042 309.88V316H323.242V304.92H326.042V306.3C326.416 305.82 326.889 305.447 327.462 305.18C328.049 304.9 328.689 304.76 329.382 304.76ZM337.885 303.6C337.392 303.6 336.978 303.447 336.645 303.14C336.325 302.82 336.165 302.427 336.165 301.96C336.165 301.493 336.325 301.107 336.645 300.8C336.978 300.48 337.392 300.32 337.885 300.32C338.378 300.32 338.785 300.48 339.105 300.8C339.438 301.107 339.605 301.493 339.605 301.96C339.605 302.427 339.438 302.82 339.105 303.14C338.785 303.447 338.378 303.6 337.885 303.6ZM339.265 304.92V316H336.465V304.92H339.265ZM345.291 307.22V312.58C345.291 312.953 345.378 313.227 345.551 313.4C345.738 313.56 346.045 313.64 346.471 313.64H347.771V316H346.011C343.651 316 342.471 314.853 342.471 312.56V307.22H341.151V304.92H342.471V302.18H345.291V304.92H347.771V307.22H345.291ZM351.205 303.6C350.712 303.6 350.299 303.447 349.965 303.14C349.645 302.82 349.485 302.427 349.485 301.96C349.485 301.493 349.645 301.107 349.965 300.8C350.299 300.48 350.712 300.32 351.205 300.32C351.699 300.32 352.105 300.48 352.425 300.8C352.759 301.107 352.925 301.493 352.925 301.96C352.925 302.427 352.759 302.82 352.425 303.14C352.105 303.447 351.699 303.6 351.205 303.6ZM352.585 304.92V316H349.785V304.92H352.585ZM360.272 316.18C359.205 316.18 358.245 315.947 357.392 315.48C356.538 315 355.865 314.327 355.372 313.46C354.892 312.593 354.652 311.593 354.652 310.46C354.652 309.327 354.898 308.327 355.392 307.46C355.898 306.593 356.585 305.927 357.452 305.46C358.318 304.98 359.285 304.74 360.352 304.74C361.418 304.74 362.385 304.98 363.252 305.46C364.118 305.927 364.798 306.593 365.292 307.46C365.798 308.327 366.052 309.327 366.052 310.46C366.052 311.593 365.792 312.593 365.272 313.46C364.765 314.327 364.072 315 363.192 315.48C362.325 315.947 361.352 316.18 360.272 316.18ZM360.272 313.74C360.778 313.74 361.252 313.62 361.692 313.38C362.145 313.127 362.505 312.753 362.772 312.26C363.038 311.767 363.172 311.167 363.172 310.46C363.172 309.407 362.892 308.6 362.332 308.04C361.785 307.467 361.112 307.18 360.312 307.18C359.512 307.18 358.838 307.467 358.292 308.04C357.758 308.6 357.492 309.407 357.492 310.46C357.492 311.513 357.752 312.327 358.272 312.9C358.805 313.46 359.472 313.74 360.272 313.74ZM374.246 304.76C375.566 304.76 376.632 305.18 377.446 306.02C378.259 306.847 378.666 308.007 378.666 309.5V316H375.866V309.88C375.866 309 375.646 308.327 375.206 307.86C374.766 307.38 374.166 307.14 373.406 307.14C372.632 307.14 372.019 307.38 371.566 307.86C371.126 308.327 370.906 309 370.906 309.88V316H368.106V304.92H370.906V306.3C371.279 305.82 371.752 305.447 372.326 305.18C372.912 304.9 373.552 304.76 374.246 304.76Z" fill="#192333"/>
<circle cx="509.668" cy="226" r="50" fill="#F3F8FF"/>
<g clip-path="url(#clip1_3316_22450)">
<path d="M492.75 218.418C492.75 215.657 494.989 213.418 497.75 213.418H535.25C535.376 213.418 535.501 213.424 535.625 213.434V212.972C535.625 210.21 533.386 207.972 530.625 207.972H493.125C490.364 207.972 488.125 210.21 488.125 212.972V238.136C488.126 240.751 490.142 242.924 492.75 243.121V218.418Z" fill="#D4E1F4"/>
<path d="M506.536 226.42C502.327 226.42 498.914 223.008 498.914 218.798C498.914 214.589 502.327 211.176 506.536 211.176C510.746 211.176 514.158 214.589 514.158 218.798C514.153 223.006 510.744 226.416 506.536 226.42ZM506.536 213.677C503.708 213.677 501.414 215.97 501.414 218.799C501.414 221.627 503.708 223.92 506.536 223.92C509.365 223.92 511.658 221.627 511.658 218.799C511.655 215.971 509.364 213.68 506.536 213.677Z" fill="#1AE5BE"/>
<path d="M536.5 213.375C536.5 209.923 533.702 207.125 530.25 207.125H492.75C489.298 207.125 486.5 209.923 486.5 213.375V238.5C486.5 241.952 489.298 244.75 492.75 244.75H530.25C533.702 244.75 536.5 241.952 536.5 238.5V213.375ZM492.75 209.625H530.25C532.318 209.625 534 211.35 534 213.418V236.339L522.895 229.206C521.236 228.042 518.976 228.267 517.58 229.736L514.034 233.431L505.586 228.19C504.127 227.288 502.263 227.383 500.904 228.429L489 236.312V213.418C489 211.35 490.682 209.625 492.75 209.625ZM489.064 239.291L502.326 230.497C502.355 230.477 502.385 230.45 502.413 230.428C502.946 230.004 503.688 229.959 504.268 230.317L512.264 235.298L505.492 242.375H492.75C490.941 242.363 489.395 241.069 489.064 239.291ZM530.25 242.375H508.957L519.383 231.488C519.931 230.906 520.824 230.815 521.478 231.276C521.493 231.286 521.508 231.291 521.523 231.301L533.936 239.293C533.604 241.071 532.058 242.364 530.25 242.375Z" fill="#0635C9"/>
</g>
<path d="M482.302 302.04C483.769 302.04 485.055 302.327 486.162 302.9C487.282 303.473 488.142 304.293 488.742 305.36C489.355 306.413 489.662 307.64 489.662 309.04C489.662 310.44 489.355 311.667 488.742 312.72C488.142 313.76 487.282 314.567 486.162 315.14C485.055 315.713 483.769 316 482.302 316H477.422V302.04H482.302ZM482.202 313.62C483.669 313.62 484.802 313.22 485.602 312.42C486.402 311.62 486.802 310.493 486.802 309.04C486.802 307.587 486.402 306.453 485.602 305.64C484.802 304.813 483.669 304.4 482.202 304.4H480.222V313.62H482.202ZM502.058 310.22C502.058 310.62 502.031 310.98 501.978 311.3H493.878C493.945 312.1 494.225 312.727 494.718 313.18C495.211 313.633 495.818 313.86 496.538 313.86C497.578 313.86 498.318 313.413 498.758 312.52H501.778C501.458 313.587 500.845 314.467 499.938 315.16C499.031 315.84 497.918 316.18 496.598 316.18C495.531 316.18 494.571 315.947 493.718 315.48C492.878 315 492.218 314.327 491.738 313.46C491.271 312.593 491.038 311.593 491.038 310.46C491.038 309.313 491.271 308.307 491.738 307.44C492.205 306.573 492.858 305.907 493.698 305.44C494.538 304.973 495.505 304.74 496.598 304.74C497.651 304.74 498.591 304.967 499.418 305.42C500.258 305.873 500.905 306.52 501.358 307.36C501.825 308.187 502.058 309.14 502.058 310.22ZM499.158 309.42C499.145 308.7 498.885 308.127 498.378 307.7C497.871 307.26 497.251 307.04 496.518 307.04C495.825 307.04 495.238 307.253 494.758 307.68C494.291 308.093 494.005 308.673 493.898 309.42H499.158ZM508.342 316.18C507.435 316.18 506.622 316.02 505.902 315.7C505.182 315.367 504.608 314.92 504.182 314.36C503.768 313.8 503.542 313.18 503.502 312.5H506.322C506.375 312.927 506.582 313.28 506.942 313.56C507.315 313.84 507.775 313.98 508.322 313.98C508.855 313.98 509.268 313.873 509.562 313.66C509.868 313.447 510.022 313.173 510.022 312.84C510.022 312.48 509.835 312.213 509.462 312.04C509.102 311.853 508.522 311.653 507.722 311.44C506.895 311.24 506.215 311.033 505.682 310.82C505.162 310.607 504.708 310.28 504.322 309.84C503.948 309.4 503.762 308.807 503.762 308.06C503.762 307.447 503.935 306.887 504.282 306.38C504.642 305.873 505.148 305.473 505.802 305.18C506.468 304.887 507.248 304.74 508.142 304.74C509.462 304.74 510.515 305.073 511.302 305.74C512.088 306.393 512.522 307.28 512.602 308.4H509.922C509.882 307.96 509.695 307.613 509.362 307.36C509.042 307.093 508.608 306.96 508.062 306.96C507.555 306.96 507.162 307.053 506.882 307.24C506.615 307.427 506.482 307.687 506.482 308.02C506.482 308.393 506.668 308.68 507.042 308.88C507.415 309.067 507.995 309.26 508.782 309.46C509.582 309.66 510.242 309.867 510.762 310.08C511.282 310.293 511.728 310.627 512.102 311.08C512.488 311.52 512.688 312.107 512.702 312.84C512.702 313.48 512.522 314.053 512.162 314.56C511.815 315.067 511.308 315.467 510.642 315.76C509.988 316.04 509.222 316.18 508.342 316.18ZM516.42 303.6C515.927 303.6 515.513 303.447 515.18 303.14C514.86 302.82 514.7 302.427 514.7 301.96C514.7 301.493 514.86 301.107 515.18 300.8C515.513 300.48 515.927 300.32 516.42 300.32C516.913 300.32 517.32 300.48 517.64 300.8C517.973 301.107 518.14 301.493 518.14 301.96C518.14 302.427 517.973 302.82 517.64 303.14C517.32 303.447 516.913 303.6 516.42 303.6ZM517.8 304.92V316H515V304.92H517.8ZM524.907 304.74C525.733 304.74 526.46 304.907 527.087 305.24C527.713 305.56 528.207 305.98 528.567 306.5V304.92H531.387V316.08C531.387 317.107 531.18 318.02 530.767 318.82C530.353 319.633 529.733 320.273 528.907 320.74C528.08 321.22 527.08 321.46 525.907 321.46C524.333 321.46 523.04 321.093 522.027 320.36C521.027 319.627 520.46 318.627 520.327 317.36H523.107C523.253 317.867 523.567 318.267 524.047 318.56C524.54 318.867 525.133 319.02 525.827 319.02C526.64 319.02 527.3 318.773 527.807 318.28C528.313 317.8 528.567 317.067 528.567 316.08V314.36C528.207 314.88 527.707 315.313 527.067 315.66C526.44 316.007 525.72 316.18 524.907 316.18C523.973 316.18 523.12 315.94 522.347 315.46C521.573 314.98 520.96 314.307 520.507 313.44C520.067 312.56 519.847 311.553 519.847 310.42C519.847 309.3 520.067 308.307 520.507 307.44C520.96 306.573 521.567 305.907 522.327 305.44C523.1 304.973 523.96 304.74 524.907 304.74ZM528.567 310.46C528.567 309.78 528.433 309.2 528.167 308.72C527.9 308.227 527.54 307.853 527.087 307.6C526.633 307.333 526.147 307.2 525.627 307.2C525.107 307.2 524.627 307.327 524.187 307.58C523.747 307.833 523.387 308.207 523.107 308.7C522.84 309.18 522.707 309.753 522.707 310.42C522.707 311.087 522.84 311.673 523.107 312.18C523.387 312.673 523.747 313.053 524.187 313.32C524.64 313.587 525.12 313.72 525.627 313.72C526.147 313.72 526.633 313.593 527.087 313.34C527.54 313.073 527.9 312.7 528.167 312.22C528.433 311.727 528.567 311.14 528.567 310.46ZM540.261 304.76C541.581 304.76 542.648 305.18 543.461 306.02C544.275 306.847 544.681 308.007 544.681 309.5V316H541.881V309.88C541.881 309 541.661 308.327 541.221 307.86C540.781 307.38 540.181 307.14 539.421 307.14C538.648 307.14 538.035 307.38 537.581 307.86C537.141 308.327 536.921 309 536.921 309.88V316H534.121V304.92H536.921V306.3C537.295 305.82 537.768 305.447 538.341 305.18C538.928 304.9 539.568 304.76 540.261 304.76Z" fill="#192333"/>
<circle cx="689.335" cy="226" r="50" fill="#F3F8FF"/>
<g clip-path="url(#clip2_3316_22450)">
<path d="M695.945 237.777L710.568 224.964L708.564 222.675L693.667 235.727L692.471 241.376L695.215 241.217L695.945 237.777Z" fill="#D4E1F4"/>
<path d="M680.933 203.233L690.022 203.244V207.8L687.072 207.777H676.776C674.259 207.776 672.219 209.816 672.22 212.333V248.631C669.703 248.632 667.663 246.592 667.664 244.075V207.777C667.663 205.261 669.703 203.22 672.22 203.221L680.933 203.233Z" fill="#D4E1F4"/>
<path d="M702.699 214.428V214.451H694.931C692.414 214.452 690.375 212.412 690.375 209.896V202.151H690.398L702.699 214.428Z" fill="#D4E1F4"/>
<path d="M691.206 201.353C691.016 201.166 690.766 201.049 690.5 201.023L690.25 201H672.22C669.076 201.001 666.527 203.55 666.525 206.695V245.305C666.527 248.45 669.076 250.999 672.22 251H698.143C701.287 250.999 703.836 248.45 703.838 245.305V243.267H701.56V245.305C701.554 247.19 700.027 248.717 698.143 248.722H672.22C670.336 248.717 668.809 247.19 668.803 245.305V206.695C668.809 204.81 670.336 203.283 672.22 203.278H689.236V209.907C689.237 213.051 691.786 215.6 694.931 215.601H701.56V221.638H703.838V214.44C703.835 214.138 703.717 213.848 703.507 213.631L691.206 201.353ZM691.514 209.907V204.884L699.965 213.323H694.931C693.046 213.318 691.52 211.792 691.514 209.907Z" fill="#0635C9"/>
<path d="M709.429 221.922C709.232 221.693 708.95 221.553 708.648 221.534C708.346 221.515 708.049 221.618 707.823 221.82L692.914 234.872C692.726 235.034 692.597 235.255 692.55 235.499L691.354 241.137C691.286 241.484 691.378 241.844 691.604 242.116C691.822 242.368 692.137 242.513 692.47 242.515H692.538L698.381 242.185C698.635 242.17 698.876 242.07 699.065 241.9L713.974 228.847C714.202 228.648 714.342 228.365 714.361 228.062C714.384 227.761 714.281 227.463 714.076 227.241L709.429 221.922ZM697.858 239.93L693.882 240.157L694.691 236.33L708.45 224.28L711.605 227.879L697.858 239.93Z" fill="#1AE5BE"/>
</g>
<path d="M657.191 306.36C657.191 307.107 657.011 307.807 656.651 308.46C656.304 309.113 655.751 309.64 654.991 310.04C654.244 310.44 653.298 310.64 652.151 310.64H649.811V316H647.011V302.04H652.151C653.231 302.04 654.151 302.227 654.911 302.6C655.671 302.973 656.238 303.487 656.611 304.14C656.998 304.793 657.191 305.533 657.191 306.36ZM652.031 308.38C652.804 308.38 653.378 308.207 653.751 307.86C654.124 307.5 654.311 307 654.311 306.36C654.311 305 653.551 304.32 652.031 304.32H649.811V308.38H652.031ZM661.979 301.2V316H659.179V301.2H661.979ZM664.025 310.42C664.025 309.3 664.245 308.307 664.685 307.44C665.139 306.573 665.745 305.907 666.505 305.44C667.279 304.973 668.139 304.74 669.085 304.74C669.912 304.74 670.632 304.907 671.245 305.24C671.872 305.573 672.372 305.993 672.745 306.5V304.92H675.565V316H672.745V314.38C672.385 314.9 671.885 315.333 671.245 315.68C670.619 316.013 669.892 316.18 669.065 316.18C668.132 316.18 667.279 315.94 666.505 315.46C665.745 314.98 665.139 314.307 664.685 313.44C664.245 312.56 664.025 311.553 664.025 310.42ZM672.745 310.46C672.745 309.78 672.612 309.2 672.345 308.72C672.079 308.227 671.719 307.853 671.265 307.6C670.812 307.333 670.325 307.2 669.805 307.2C669.285 307.2 668.805 307.327 668.365 307.58C667.925 307.833 667.565 308.207 667.285 308.7C667.019 309.18 666.885 309.753 666.885 310.42C666.885 311.087 667.019 311.673 667.285 312.18C667.565 312.673 667.925 313.053 668.365 313.32C668.819 313.587 669.299 313.72 669.805 313.72C670.325 313.72 670.812 313.593 671.265 313.34C671.719 313.073 672.079 312.7 672.345 312.22C672.612 311.727 672.745 311.14 672.745 310.46ZM684.44 304.76C685.76 304.76 686.827 305.18 687.64 306.02C688.453 306.847 688.86 308.007 688.86 309.5V316H686.06V309.88C686.06 309 685.84 308.327 685.4 307.86C684.96 307.38 684.36 307.14 683.6 307.14C682.827 307.14 682.213 307.38 681.76 307.86C681.32 308.327 681.1 309 681.1 309.88V316H678.3V304.92H681.1V306.3C681.473 305.82 681.947 305.447 682.52 305.18C683.107 304.9 683.747 304.76 684.44 304.76ZM697.663 304.76C698.983 304.76 700.049 305.18 700.863 306.02C701.676 306.847 702.083 308.007 702.083 309.5V316H699.283V309.88C699.283 309 699.063 308.327 698.623 307.86C698.183 307.38 697.583 307.14 696.823 307.14C696.049 307.14 695.436 307.38 694.983 307.86C694.543 308.327 694.323 309 694.323 309.88V316H691.523V304.92H694.323V306.3C694.696 305.82 695.169 305.447 695.743 305.18C696.329 304.9 696.969 304.76 697.663 304.76ZM706.165 303.6C705.672 303.6 705.259 303.447 704.925 303.14C704.605 302.82 704.445 302.427 704.445 301.96C704.445 301.493 704.605 301.107 704.925 300.8C705.259 300.48 705.672 300.32 706.165 300.32C706.659 300.32 707.065 300.48 707.385 300.8C707.719 301.107 707.885 301.493 707.885 301.96C707.885 302.427 707.719 302.82 707.385 303.14C707.065 303.447 706.659 303.6 706.165 303.6ZM707.545 304.92V316H704.745V304.92H707.545ZM716.452 304.76C717.772 304.76 718.838 305.18 719.652 306.02C720.465 306.847 720.872 308.007 720.872 309.5V316H718.072V309.88C718.072 309 717.852 308.327 717.412 307.86C716.972 307.38 716.372 307.14 715.612 307.14C714.838 307.14 714.225 307.38 713.772 307.86C713.332 308.327 713.112 309 713.112 309.88V316H710.312V304.92H713.112V306.3C713.485 305.82 713.958 305.447 714.532 305.18C715.118 304.9 715.758 304.76 716.452 304.76ZM727.874 304.74C728.701 304.74 729.428 304.907 730.054 305.24C730.681 305.56 731.174 305.98 731.534 306.5V304.92H734.354V316.08C734.354 317.107 734.148 318.02 733.734 318.82C733.321 319.633 732.701 320.273 731.874 320.74C731.048 321.22 730.048 321.46 728.874 321.46C727.301 321.46 726.008 321.093 724.994 320.36C723.994 319.627 723.428 318.627 723.294 317.36H726.074C726.221 317.867 726.534 318.267 727.014 318.56C727.508 318.867 728.101 319.02 728.794 319.02C729.608 319.02 730.268 318.773 730.774 318.28C731.281 317.8 731.534 317.067 731.534 316.08V314.36C731.174 314.88 730.674 315.313 730.034 315.66C729.408 316.007 728.688 316.18 727.874 316.18C726.941 316.18 726.088 315.94 725.314 315.46C724.541 314.98 723.928 314.307 723.474 313.44C723.034 312.56 722.814 311.553 722.814 310.42C722.814 309.3 723.034 308.307 723.474 307.44C723.928 306.573 724.534 305.907 725.294 305.44C726.068 304.973 726.928 304.74 727.874 304.74ZM731.534 310.46C731.534 309.78 731.401 309.2 731.134 308.72C730.868 308.227 730.508 307.853 730.054 307.6C729.601 307.333 729.114 307.2 728.594 307.2C728.074 307.2 727.594 307.327 727.154 307.58C726.714 307.833 726.354 308.207 726.074 308.7C725.808 309.18 725.674 309.753 725.674 310.42C725.674 311.087 725.808 311.673 726.074 312.18C726.354 312.673 726.714 313.053 727.154 313.32C727.608 313.587 728.088 313.72 728.594 313.72C729.114 313.72 729.601 313.593 730.054 313.34C730.508 313.073 730.868 312.7 731.134 312.22C731.401 311.727 731.534 311.14 731.534 310.46Z" fill="#192333"/>
<circle cx="886.667" cy="226" r="50" fill="#F3F8FF"/>
<g clip-path="url(#clip3_3316_22450)">
<path d="M879.102 244.75C876.708 244.75 874.768 242.81 874.768 240.416V202.25H874.102C871.708 202.25 869.768 204.191 869.768 206.585V245.415C869.768 247.809 871.708 249.75 874.102 249.75H902.899C905.292 249.75 907.233 247.809 907.233 245.415V244.75H879.102Z" fill="#D4E1F4"/>
<path d="M894.149 235.568C893.663 235.567 893.221 235.286 893.016 234.845C892.811 234.404 892.88 233.885 893.193 233.513L896 230.177L893.193 226.842C892.757 226.313 892.828 225.532 893.352 225.091C893.876 224.649 894.659 224.713 895.105 225.232L898.59 229.373C898.982 229.838 898.982 230.517 898.59 230.983L895.106 235.123C894.869 235.405 894.518 235.568 894.149 235.568Z" fill="#1AE5BE"/>
<path d="M882.852 235.568C882.483 235.568 882.133 235.405 881.895 235.123L878.41 230.983C878.018 230.517 878.018 229.838 878.41 229.373L881.895 225.232C882.342 224.713 883.124 224.649 883.648 225.091C884.173 225.532 884.243 226.313 883.807 226.842L881.001 230.177L883.808 233.513C884.121 233.884 884.19 234.404 883.985 234.845C883.78 235.285 883.338 235.567 882.852 235.567L882.852 235.568Z" fill="#1AE5BE"/>
<path d="M887.449 238.328C886.758 238.328 886.198 237.769 886.197 237.078C886.197 237.015 886.202 236.952 886.211 236.89L888.318 223.09C888.423 222.408 889.061 221.939 889.743 222.043C890.425 222.147 890.894 222.785 890.79 223.468L888.683 237.267C888.589 237.877 888.065 238.327 887.449 238.328Z" fill="#0635C9"/>
<path d="M908.485 212.402C908.485 212.402 908.48 212.401 908.48 212.4C908.476 212.358 908.468 212.316 908.458 212.275C908.458 212.274 908.458 212.273 908.457 212.273C908.448 212.232 908.437 212.191 908.425 212.152C908.423 212.148 908.421 212.144 908.42 212.139C908.408 212.103 908.395 212.068 908.38 212.034C908.376 212.026 908.372 212.017 908.368 212.009C908.354 211.98 908.34 211.951 908.324 211.923C908.318 211.911 908.311 211.9 908.303 211.888C908.289 211.865 908.275 211.841 908.259 211.818C908.25 211.805 908.239 211.792 908.229 211.779C908.214 211.759 908.199 211.739 908.183 211.721C908.172 211.707 908.16 211.694 908.147 211.681C908.131 211.663 908.114 211.646 908.098 211.629C908.092 211.624 908.087 211.619 908.082 211.613L896.969 201.333C896.961 201.324 896.951 201.317 896.943 201.31C896.927 201.297 896.912 201.284 896.897 201.271C896.881 201.259 896.866 201.248 896.851 201.237C896.835 201.226 896.817 201.212 896.8 201.201C896.785 201.191 896.769 201.183 896.754 201.173C896.735 201.162 896.716 201.151 896.696 201.141C896.681 201.133 896.667 201.126 896.652 201.12C896.631 201.11 896.61 201.1 896.588 201.091C896.573 201.085 896.558 201.08 896.543 201.075C896.521 201.067 896.499 201.059 896.476 201.052C896.46 201.047 896.444 201.043 896.427 201.04C896.405 201.034 896.383 201.028 896.36 201.023C896.34 201.02 896.319 201.017 896.298 201.014C896.28 201.011 896.261 201.008 896.243 201.006C896.202 201.002 896.162 201 896.121 201H874.102C871.016 201.002 868.512 203.499 868.501 206.585V245.415C868.512 248.501 871.016 250.998 874.102 251H902.899C905.985 250.998 908.489 248.501 908.5 245.415V212.532C908.498 212.488 908.492 212.445 908.485 212.402ZM897.376 205.11L904.042 211.25H898.288C897.797 211.265 897.389 210.878 897.376 210.388C897.376 210.38 897.376 210.371 897.376 210.364V205.11ZM902.899 248.5H874.102C872.396 248.499 871.011 247.121 871.001 245.415V206.585C871.011 204.879 872.396 203.501 874.102 203.5H894.876V210.364C894.878 212.237 896.398 213.753 898.271 213.75H906.001V245.415C905.99 247.121 904.605 248.499 902.899 248.5Z" fill="#0635C9"/>
</g>
<path d="M825.688 302.04C827.154 302.04 828.441 302.327 829.548 302.9C830.668 303.473 831.528 304.293 832.128 305.36C832.741 306.413 833.048 307.64 833.048 309.04C833.048 310.44 832.741 311.667 832.128 312.72C831.528 313.76 830.668 314.567 829.548 315.14C828.441 315.713 827.154 316 825.688 316H820.808V302.04H825.688ZM825.588 313.62C827.054 313.62 828.188 313.22 828.988 312.42C829.788 311.62 830.188 310.493 830.188 309.04C830.188 307.587 829.788 306.453 828.988 305.64C828.188 304.813 827.054 304.4 825.588 304.4H823.608V313.62H825.588ZM845.444 310.22C845.444 310.62 845.417 310.98 845.364 311.3H837.264C837.33 312.1 837.61 312.727 838.104 313.18C838.597 313.633 839.204 313.86 839.924 313.86C840.964 313.86 841.704 313.413 842.144 312.52H845.164C844.844 313.587 844.23 314.467 843.324 315.16C842.417 315.84 841.304 316.18 839.984 316.18C838.917 316.18 837.957 315.947 837.104 315.48C836.264 315 835.604 314.327 835.124 313.46C834.657 312.593 834.424 311.593 834.424 310.46C834.424 309.313 834.657 308.307 835.124 307.44C835.59 306.573 836.244 305.907 837.084 305.44C837.924 304.973 838.89 304.74 839.984 304.74C841.037 304.74 841.977 304.967 842.804 305.42C843.644 305.873 844.29 306.52 844.744 307.36C845.21 308.187 845.444 309.14 845.444 310.22ZM842.544 309.42C842.53 308.7 842.27 308.127 841.764 307.7C841.257 307.26 840.637 307.04 839.904 307.04C839.21 307.04 838.624 307.253 838.144 307.68C837.677 308.093 837.39 308.673 837.284 309.42H842.544ZM852.107 313.42L854.907 304.92H857.887L853.787 316H850.387L846.307 304.92H849.307L852.107 313.42ZM869.76 310.22C869.76 310.62 869.733 310.98 869.68 311.3H861.58C861.647 312.1 861.927 312.727 862.42 313.18C862.913 313.633 863.52 313.86 864.24 313.86C865.28 313.86 866.02 313.413 866.46 312.52H869.48C869.16 313.587 868.547 314.467 867.64 315.16C866.733 315.84 865.62 316.18 864.3 316.18C863.233 316.18 862.273 315.947 861.42 315.48C860.58 315 859.92 314.327 859.44 313.46C858.973 312.593 858.74 311.593 858.74 310.46C858.74 309.313 858.973 308.307 859.44 307.44C859.907 306.573 860.56 305.907 861.4 305.44C862.24 304.973 863.207 304.74 864.3 304.74C865.353 304.74 866.293 304.967 867.12 305.42C867.96 305.873 868.607 306.52 869.06 307.36C869.527 308.187 869.76 309.14 869.76 310.22ZM866.86 309.42C866.847 308.7 866.587 308.127 866.08 307.7C865.573 307.26 864.953 307.04 864.22 307.04C863.527 307.04 862.94 307.253 862.46 307.68C861.993 308.093 861.707 308.673 861.6 309.42H866.86ZM874.604 301.2V316H871.804V301.2H874.604ZM882.29 316.18C881.224 316.18 880.264 315.947 879.41 315.48C878.557 315 877.884 314.327 877.39 313.46C876.91 312.593 876.67 311.593 876.67 310.46C876.67 309.327 876.917 308.327 877.41 307.46C877.917 306.593 878.604 305.927 879.47 305.46C880.337 304.98 881.304 304.74 882.37 304.74C883.437 304.74 884.404 304.98 885.27 305.46C886.137 305.927 886.817 306.593 887.31 307.46C887.817 308.327 888.07 309.327 888.07 310.46C888.07 311.593 887.81 312.593 887.29 313.46C886.784 314.327 886.09 315 885.21 315.48C884.344 315.947 883.37 316.18 882.29 316.18ZM882.29 313.74C882.797 313.74 883.27 313.62 883.71 313.38C884.164 313.127 884.524 312.753 884.79 312.26C885.057 311.767 885.19 311.167 885.19 310.46C885.19 309.407 884.91 308.6 884.35 308.04C883.804 307.467 883.13 307.18 882.33 307.18C881.53 307.18 880.857 307.467 880.31 308.04C879.777 308.6 879.51 309.407 879.51 310.46C879.51 311.513 879.77 312.327 880.29 312.9C880.824 313.46 881.49 313.74 882.29 313.74ZM892.924 306.52C893.284 306.013 893.777 305.593 894.404 305.26C895.044 304.913 895.771 304.74 896.584 304.74C897.531 304.74 898.384 304.973 899.144 305.44C899.917 305.907 900.524 306.573 900.964 307.44C901.417 308.293 901.644 309.287 901.644 310.42C901.644 311.553 901.417 312.56 900.964 313.44C900.524 314.307 899.917 314.98 899.144 315.46C898.384 315.94 897.531 316.18 896.584 316.18C895.771 316.18 895.051 316.013 894.424 315.68C893.811 315.347 893.311 314.927 892.924 314.42V321.28H890.124V304.92H892.924V306.52ZM898.784 310.42C898.784 309.753 898.644 309.18 898.364 308.7C898.097 308.207 897.737 307.833 897.284 307.58C896.844 307.327 896.364 307.2 895.844 307.2C895.337 307.2 894.857 307.333 894.404 307.6C893.964 307.853 893.604 308.227 893.324 308.72C893.057 309.213 892.924 309.793 892.924 310.46C892.924 311.127 893.057 311.707 893.324 312.2C893.604 312.693 893.964 313.073 894.404 313.34C894.857 313.593 895.337 313.72 895.844 313.72C896.364 313.72 896.844 313.587 897.284 313.32C897.737 313.053 898.097 312.673 898.364 312.18C898.644 311.687 898.784 311.1 898.784 310.42ZM917.439 304.76C918.799 304.76 919.892 305.18 920.719 306.02C921.559 306.847 921.979 308.007 921.979 309.5V316H919.179V309.88C919.179 309.013 918.959 308.353 918.519 307.9C918.079 307.433 917.479 307.2 916.719 307.2C915.959 307.2 915.352 307.433 914.899 307.9C914.459 308.353 914.239 309.013 914.239 309.88V316H911.439V309.88C911.439 309.013 911.219 308.353 910.779 307.9C910.339 307.433 909.739 307.2 908.979 307.2C908.205 307.2 907.592 307.433 907.139 307.9C906.699 308.353 906.479 309.013 906.479 309.88V316H903.679V304.92H906.479V306.26C906.839 305.793 907.299 305.427 907.859 305.16C908.432 304.893 909.059 304.76 909.739 304.76C910.605 304.76 911.379 304.947 912.059 305.32C912.739 305.68 913.265 306.2 913.639 306.88C913.999 306.24 914.519 305.727 915.199 305.34C915.892 304.953 916.639 304.76 917.439 304.76ZM934.936 310.22C934.936 310.62 934.909 310.98 934.856 311.3H926.756C926.823 312.1 927.103 312.727 927.596 313.18C928.089 313.633 928.696 313.86 929.416 313.86C930.456 313.86 931.196 313.413 931.636 312.52H934.656C934.336 313.587 933.723 314.467 932.816 315.16C931.909 315.84 930.796 316.18 929.476 316.18C928.409 316.18 927.449 315.947 926.596 315.48C925.756 315 925.096 314.327 924.616 313.46C924.149 312.593 923.916 311.593 923.916 310.46C923.916 309.313 924.149 308.307 924.616 307.44C925.083 306.573 925.736 305.907 926.576 305.44C927.416 304.973 928.383 304.74 929.476 304.74C930.529 304.74 931.469 304.967 932.296 305.42C933.136 305.873 933.783 306.52 934.236 307.36C934.703 308.187 934.936 309.14 934.936 310.22ZM932.036 309.42C932.023 308.7 931.763 308.127 931.256 307.7C930.749 307.26 930.129 307.04 929.396 307.04C928.703 307.04 928.116 307.253 927.636 307.68C927.169 308.093 926.883 308.673 926.776 309.42H932.036ZM943.12 304.76C944.44 304.76 945.506 305.18 946.32 306.02C947.133 306.847 947.54 308.007 947.54 309.5V316H944.74V309.88C944.74 309 944.52 308.327 944.08 307.86C943.64 307.38 943.04 307.14 942.28 307.14C941.506 307.14 940.893 307.38 940.44 307.86C940 308.327 939.78 309 939.78 309.88V316H936.98V304.92H939.78V306.3C940.153 305.82 940.626 305.447 941.2 305.18C941.786 304.9 942.426 304.76 943.12 304.76ZM953.462 307.22V312.58C953.462 312.953 953.549 313.227 953.722 313.4C953.909 313.56 954.216 313.64 954.642 313.64H955.942V316H954.182C951.822 316 950.642 314.853 950.642 312.56V307.22H949.322V304.92H950.642V302.18H953.462V304.92H955.942V307.22H953.462Z" fill="#192333"/>
<circle cx="1095.17" cy="226" r="50" fill="#F3F8FF"/>
<g clip-path="url(#clip4_3316_22450)">
<path d="M1077.17 212.401C1077.17 210.583 1078.64 209.108 1080.46 209.108H1120.34V207.897C1120.34 206.078 1118.86 204.604 1117.05 204.604H1075.95C1074.14 204.604 1072.66 206.078 1072.66 207.897V234.662C1072.66 236.481 1074.14 237.956 1075.95 237.956H1077.17V212.401Z" fill="#D4E1F4"/>
<path d="M1120.34 232.782H1072.66C1072.04 232.782 1071.54 232.277 1071.54 231.656C1071.54 231.034 1072.04 230.53 1072.66 230.53H1120.34C1120.96 230.53 1121.46 231.034 1121.46 231.656C1121.46 232.277 1120.96 232.782 1120.34 232.782Z" fill="#1AE5BE"/>
<path d="M1117.05 203.478H1075.95C1073.52 203.478 1071.5 205.46 1071.5 207.897V234.662C1071.5 237.099 1073.52 239.063 1075.95 239.063H1089.07V247.396C1089.07 248.018 1089.57 248.523 1090.19 248.523C1090.82 248.523 1091.32 248.018 1091.32 247.396V239.063H1101.68V247.396C1101.68 248.018 1102.18 248.523 1102.81 248.523C1103.43 248.523 1103.93 248.018 1103.93 247.396V239.063H1117.05C1119.48 239.063 1121.5 237.099 1121.5 234.662V207.897C1121.5 205.46 1119.48 203.478 1117.05 203.478ZM1119.14 234.644C1119.14 235.84 1118.16 236.811 1116.97 236.811H1075.92C1074.72 236.811 1073.75 235.84 1073.75 234.644V207.897C1073.75 206.7 1074.72 205.73 1075.92 205.73H1116.97C1118.16 205.73 1119.14 206.7 1119.14 207.897V234.644Z" fill="#0635C9"/>
<path d="M1107.22 248.523H1086.38C1085.76 248.523 1085.25 248.018 1085.25 247.396C1085.25 246.774 1085.76 246.27 1086.38 246.27H1107.22C1107.84 246.27 1108.34 246.774 1108.34 247.396C1108.34 248.018 1107.84 248.523 1107.22 248.523Z" fill="#1AE5BE"/>
</g>
<path d="M1040.29 302.04C1041.76 302.04 1043.04 302.327 1044.15 302.9C1045.27 303.473 1046.13 304.293 1046.73 305.36C1047.34 306.413 1047.65 307.64 1047.65 309.04C1047.65 310.44 1047.34 311.667 1046.73 312.72C1046.13 313.76 1045.27 314.567 1044.15 315.14C1043.04 315.713 1041.76 316 1040.29 316H1035.41V302.04H1040.29ZM1040.19 313.62C1041.66 313.62 1042.79 313.22 1043.59 312.42C1044.39 311.62 1044.79 310.493 1044.79 309.04C1044.79 307.587 1044.39 306.453 1043.59 305.64C1042.79 304.813 1041.66 304.4 1040.19 304.4H1038.21V313.62H1040.19ZM1060.05 310.22C1060.05 310.62 1060.02 310.98 1059.97 311.3H1051.87C1051.93 312.1 1052.21 312.727 1052.71 313.18C1053.2 313.633 1053.81 313.86 1054.53 313.86C1055.57 313.86 1056.31 313.413 1056.75 312.52H1059.77C1059.45 313.587 1058.83 314.467 1057.93 315.16C1057.02 315.84 1055.91 316.18 1054.59 316.18C1053.52 316.18 1052.56 315.947 1051.71 315.48C1050.87 315 1050.21 314.327 1049.73 313.46C1049.26 312.593 1049.03 311.593 1049.03 310.46C1049.03 309.313 1049.26 308.307 1049.73 307.44C1050.19 306.573 1050.85 305.907 1051.69 305.44C1052.53 304.973 1053.49 304.74 1054.59 304.74C1055.64 304.74 1056.58 304.967 1057.41 305.42C1058.25 305.873 1058.89 306.52 1059.35 307.36C1059.81 308.187 1060.05 309.14 1060.05 310.22ZM1057.15 309.42C1057.13 308.7 1056.87 308.127 1056.37 307.7C1055.86 307.26 1055.24 307.04 1054.51 307.04C1053.81 307.04 1053.23 307.253 1052.75 307.68C1052.28 308.093 1051.99 308.673 1051.89 309.42H1057.15ZM1064.89 306.52C1065.25 306.013 1065.74 305.593 1066.37 305.26C1067.01 304.913 1067.74 304.74 1068.55 304.74C1069.5 304.74 1070.35 304.973 1071.11 305.44C1071.88 305.907 1072.49 306.573 1072.93 307.44C1073.38 308.293 1073.61 309.287 1073.61 310.42C1073.61 311.553 1073.38 312.56 1072.93 313.44C1072.49 314.307 1071.88 314.98 1071.11 315.46C1070.35 315.94 1069.5 316.18 1068.55 316.18C1067.74 316.18 1067.02 316.013 1066.39 315.68C1065.78 315.347 1065.28 314.927 1064.89 314.42V321.28H1062.09V304.92H1064.89V306.52ZM1070.75 310.42C1070.75 309.753 1070.61 309.18 1070.33 308.7C1070.06 308.207 1069.7 307.833 1069.25 307.58C1068.81 307.327 1068.33 307.2 1067.81 307.2C1067.3 307.2 1066.82 307.333 1066.37 307.6C1065.93 307.853 1065.57 308.227 1065.29 308.72C1065.02 309.213 1064.89 309.793 1064.89 310.46C1064.89 311.127 1065.02 311.707 1065.29 312.2C1065.57 312.693 1065.93 313.073 1066.37 313.34C1066.82 313.593 1067.3 313.72 1067.81 313.72C1068.33 313.72 1068.81 313.587 1069.25 313.32C1069.7 313.053 1070.06 312.673 1070.33 312.18C1070.61 311.687 1070.75 311.1 1070.75 310.42ZM1078.44 301.2V316H1075.64V301.2H1078.44ZM1086.13 316.18C1085.06 316.18 1084.1 315.947 1083.25 315.48C1082.4 315 1081.72 314.327 1081.23 313.46C1080.75 312.593 1080.51 311.593 1080.51 310.46C1080.51 309.327 1080.76 308.327 1081.25 307.46C1081.76 306.593 1082.44 305.927 1083.31 305.46C1084.18 304.98 1085.14 304.74 1086.21 304.74C1087.28 304.74 1088.24 304.98 1089.11 305.46C1089.98 305.927 1090.66 306.593 1091.15 307.46C1091.66 308.327 1091.91 309.327 1091.91 310.46C1091.91 311.593 1091.65 312.593 1091.13 313.46C1090.62 314.327 1089.93 315 1089.05 315.48C1088.18 315.947 1087.21 316.18 1086.13 316.18ZM1086.13 313.74C1086.64 313.74 1087.11 313.62 1087.55 313.38C1088 313.127 1088.36 312.753 1088.63 312.26C1088.9 311.767 1089.03 311.167 1089.03 310.46C1089.03 309.407 1088.75 308.6 1088.19 308.04C1087.64 307.467 1086.97 307.18 1086.17 307.18C1085.37 307.18 1084.7 307.467 1084.15 308.04C1083.62 308.6 1083.35 309.407 1083.35 310.46C1083.35 311.513 1083.61 312.327 1084.13 312.9C1084.66 313.46 1085.33 313.74 1086.13 313.74ZM1104.56 304.92L1097.7 321.24H1094.72L1097.12 315.72L1092.68 304.92H1095.82L1098.68 312.66L1101.58 304.92H1104.56ZM1119.83 304.76C1121.19 304.76 1122.29 305.18 1123.11 306.02C1123.95 306.847 1124.37 308.007 1124.37 309.5V316H1121.57V309.88C1121.57 309.013 1121.35 308.353 1120.91 307.9C1120.47 307.433 1119.87 307.2 1119.11 307.2C1118.35 307.2 1117.75 307.433 1117.29 307.9C1116.85 308.353 1116.63 309.013 1116.63 309.88V316H1113.83V309.88C1113.83 309.013 1113.61 308.353 1113.17 307.9C1112.73 307.433 1112.13 307.2 1111.37 307.2C1110.6 307.2 1109.99 307.433 1109.53 307.9C1109.09 308.353 1108.87 309.013 1108.87 309.88V316H1106.07V304.92H1108.87V306.26C1109.23 305.793 1109.69 305.427 1110.25 305.16C1110.83 304.893 1111.45 304.76 1112.13 304.76C1113 304.76 1113.77 304.947 1114.45 305.32C1115.13 305.68 1115.66 306.2 1116.03 306.88C1116.39 306.24 1116.91 305.727 1117.59 305.34C1118.29 304.953 1119.03 304.76 1119.83 304.76ZM1137.33 310.22C1137.33 310.62 1137.3 310.98 1137.25 311.3H1129.15C1129.22 312.1 1129.5 312.727 1129.99 313.18C1130.48 313.633 1131.09 313.86 1131.81 313.86C1132.85 313.86 1133.59 313.413 1134.03 312.52H1137.05C1136.73 313.587 1136.12 314.467 1135.21 315.16C1134.3 315.84 1133.19 316.18 1131.87 316.18C1130.8 316.18 1129.84 315.947 1128.99 315.48C1128.15 315 1127.49 314.327 1127.01 313.46C1126.54 312.593 1126.31 311.593 1126.31 310.46C1126.31 309.313 1126.54 308.307 1127.01 307.44C1127.48 306.573 1128.13 305.907 1128.97 305.44C1129.81 304.973 1130.78 304.74 1131.87 304.74C1132.92 304.74 1133.86 304.967 1134.69 305.42C1135.53 305.873 1136.18 306.52 1136.63 307.36C1137.1 308.187 1137.33 309.14 1137.33 310.22ZM1134.43 309.42C1134.42 308.7 1134.16 308.127 1133.65 307.7C1133.14 307.26 1132.52 307.04 1131.79 307.04C1131.1 307.04 1130.51 307.253 1130.03 307.68C1129.56 308.093 1129.28 308.673 1129.17 309.42H1134.43ZM1145.51 304.76C1146.83 304.76 1147.9 305.18 1148.71 306.02C1149.53 306.847 1149.93 308.007 1149.93 309.5V316H1147.13V309.88C1147.13 309 1146.91 308.327 1146.47 307.86C1146.03 307.38 1145.43 307.14 1144.67 307.14C1143.9 307.14 1143.29 307.38 1142.83 307.86C1142.39 308.327 1142.17 309 1142.17 309.88V316H1139.37V304.92H1142.17V306.3C1142.55 305.82 1143.02 305.447 1143.59 305.18C1144.18 304.9 1144.82 304.76 1145.51 304.76ZM1155.86 307.22V312.58C1155.86 312.953 1155.94 313.227 1156.12 313.4C1156.3 313.56 1156.61 313.64 1157.04 313.64H1158.34V316H1156.58C1154.22 316 1153.04 314.853 1153.04 312.56V307.22H1151.72V304.92H1153.04V302.18H1155.86V304.92H1158.34V307.22H1155.86Z" fill="#192333"/>
<defs>
<clipPath id="clip0_3316_22450">
<rect width="50" height="50" fill="white" transform="translate(306.5 201)"/>
</clipPath>
<clipPath id="clip1_3316_22450">
<rect width="50" height="50" fill="white" transform="translate(486.5 201)"/>
</clipPath>
<clipPath id="clip2_3316_22450">
<rect width="50" height="50" fill="white" transform="translate(665.5 201)"/>
</clipPath>
<clipPath id="clip3_3316_22450">
<rect width="50" height="50" fill="white" transform="translate(863.5 201)"/>
</clipPath>
<clipPath id="clip4_3316_22450">
<rect width="50" height="50" fill="white" transform="translate(1071.5 201)"/>
</clipPath>
</defs>
</svg>
