<svg width="1440" height="472" viewBox="0 0 1440 472" fill="none" xmlns="http://www.w3.org/2000/svg">
<rect width="1440" height="472" fill="white"/>
<path d="M289.116 77.228V78.81H286.512V87H284.552V78.81H281.948V77.228H289.116ZM297.756 82.954C297.756 83.234 297.737 83.486 297.7 83.71H292.03C292.077 84.27 292.273 84.7087 292.618 85.026C292.963 85.3433 293.388 85.502 293.892 85.502C294.62 85.502 295.138 85.1893 295.446 84.564H297.56C297.336 85.3107 296.907 85.9267 296.272 86.412C295.637 86.888 294.858 87.126 293.934 87.126C293.187 87.126 292.515 86.9627 291.918 86.636C291.33 86.3 290.868 85.8287 290.532 85.222C290.205 84.6153 290.042 83.9153 290.042 83.122C290.042 82.3193 290.205 81.6147 290.532 81.008C290.859 80.4013 291.316 79.9347 291.904 79.608C292.492 79.2813 293.169 79.118 293.934 79.118C294.671 79.118 295.329 79.2767 295.908 79.594C296.496 79.9113 296.949 80.364 297.266 80.952C297.593 81.5307 297.756 82.198 297.756 82.954ZM295.726 82.394C295.717 81.89 295.535 81.4887 295.18 81.19C294.825 80.882 294.391 80.728 293.878 80.728C293.393 80.728 292.982 80.8773 292.646 81.176C292.319 81.4653 292.119 81.8713 292.044 82.394H295.726ZM298.683 83.122C298.683 82.3193 298.846 81.6193 299.173 81.022C299.499 80.4153 299.952 79.9487 300.531 79.622C301.109 79.286 301.772 79.118 302.519 79.118C303.48 79.118 304.273 79.3607 304.899 79.846C305.533 80.322 305.958 80.994 306.173 81.862H304.059C303.947 81.526 303.755 81.2647 303.485 81.078C303.223 80.882 302.897 80.784 302.505 80.784C301.945 80.784 301.501 80.9893 301.175 81.4C300.848 81.8013 300.685 82.3753 300.685 83.122C300.685 83.8593 300.848 84.4333 301.175 84.844C301.501 85.2453 301.945 85.446 302.505 85.446C303.298 85.446 303.816 85.0913 304.059 84.382H306.173C305.958 85.222 305.533 85.8893 304.899 86.384C304.264 86.8787 303.471 87.126 302.519 87.126C301.772 87.126 301.109 86.9627 300.531 86.636C299.952 86.3 299.499 85.8333 299.173 85.236C298.846 84.6293 298.683 83.9247 298.683 83.122ZM311.977 79.132C312.565 79.132 313.087 79.2627 313.545 79.524C314.002 79.776 314.357 80.154 314.609 80.658C314.87 81.1527 315.001 81.75 315.001 82.45V87H313.041V82.716C313.041 82.1 312.887 81.6287 312.579 81.302C312.271 80.966 311.851 80.798 311.319 80.798C310.777 80.798 310.348 80.966 310.031 81.302C309.723 81.6287 309.569 82.1 309.569 82.716V87H307.609V76.64H309.569V80.21C309.821 79.874 310.157 79.6127 310.577 79.426C310.997 79.23 311.463 79.132 311.977 79.132ZM321.162 79.132C322.086 79.132 322.833 79.426 323.402 80.014C323.972 80.5927 324.256 81.4047 324.256 82.45V87H322.296V82.716C322.296 82.1 322.142 81.6287 321.834 81.302C321.526 80.966 321.106 80.798 320.574 80.798C320.033 80.798 319.604 80.966 319.286 81.302C318.978 81.6287 318.824 82.1 318.824 82.716V87H316.864V79.244H318.824V80.21C319.086 79.874 319.417 79.6127 319.818 79.426C320.229 79.23 320.677 79.132 321.162 79.132ZM329.564 87.126C328.818 87.126 328.146 86.9627 327.548 86.636C326.951 86.3 326.48 85.8287 326.134 85.222C325.798 84.6153 325.63 83.9153 325.63 83.122C325.63 82.3287 325.803 81.6287 326.148 81.022C326.503 80.4153 326.984 79.9487 327.59 79.622C328.197 79.286 328.874 79.118 329.62 79.118C330.367 79.118 331.044 79.286 331.65 79.622C332.257 79.9487 332.733 80.4153 333.078 81.022C333.433 81.6287 333.61 82.3287 333.61 83.122C333.61 83.9153 333.428 84.6153 333.064 85.222C332.71 85.8287 332.224 86.3 331.608 86.636C331.002 86.9627 330.32 87.126 329.564 87.126ZM329.564 85.418C329.919 85.418 330.25 85.334 330.558 85.166C330.876 84.9887 331.128 84.7273 331.314 84.382C331.501 84.0367 331.594 83.6167 331.594 83.122C331.594 82.3847 331.398 81.82 331.006 81.428C330.624 81.0267 330.152 80.826 329.592 80.826C329.032 80.826 328.561 81.0267 328.178 81.428C327.805 81.82 327.618 82.3847 327.618 83.122C327.618 83.8593 327.8 84.4287 328.164 84.83C328.538 85.222 329.004 85.418 329.564 85.418ZM337.008 76.64V87H335.048V76.64H337.008ZM342.389 87.126C341.642 87.126 340.97 86.9627 340.373 86.636C339.775 86.3 339.304 85.8287 338.959 85.222C338.623 84.6153 338.455 83.9153 338.455 83.122C338.455 82.3287 338.627 81.6287 338.973 81.022C339.327 80.4153 339.808 79.9487 340.415 79.622C341.021 79.286 341.698 79.118 342.445 79.118C343.191 79.118 343.868 79.286 344.475 79.622C345.081 79.9487 345.557 80.4153 345.903 81.022C346.257 81.6287 346.435 82.3287 346.435 83.122C346.435 83.9153 346.253 84.6153 345.889 85.222C345.534 85.8287 345.049 86.3 344.433 86.636C343.826 86.9627 343.145 87.126 342.389 87.126ZM342.389 85.418C342.743 85.418 343.075 85.334 343.383 85.166C343.7 84.9887 343.952 84.7273 344.139 84.382C344.325 84.0367 344.419 83.6167 344.419 83.122C344.419 82.3847 344.223 81.82 343.831 81.428C343.448 81.0267 342.977 80.826 342.417 80.826C341.857 80.826 341.385 81.0267 341.003 81.428C340.629 81.82 340.443 82.3847 340.443 83.122C340.443 83.8593 340.625 84.4287 340.989 84.83C341.362 85.222 341.829 85.418 342.389 85.418ZM350.91 79.118C351.489 79.118 351.998 79.2347 352.436 79.468C352.875 79.692 353.22 79.986 353.472 80.35V79.244H355.446V87.056C355.446 87.7747 355.302 88.414 355.012 88.974C354.723 89.5433 354.289 89.9913 353.71 90.318C353.132 90.654 352.432 90.822 351.61 90.822C350.509 90.822 349.604 90.5653 348.894 90.052C348.194 89.5387 347.798 88.8387 347.704 87.952H349.65C349.753 88.3067 349.972 88.5867 350.308 88.792C350.654 89.0067 351.069 89.114 351.554 89.114C352.124 89.114 352.586 88.9413 352.94 88.596C353.295 88.26 353.472 87.7467 353.472 87.056V85.852C353.22 86.216 352.87 86.5193 352.422 86.762C351.984 87.0047 351.48 87.126 350.91 87.126C350.257 87.126 349.66 86.958 349.118 86.622C348.577 86.286 348.148 85.8147 347.83 85.208C347.522 84.592 347.368 83.8873 347.368 83.094C347.368 82.31 347.522 81.6147 347.83 81.008C348.148 80.4013 348.572 79.9347 349.104 79.608C349.646 79.2813 350.248 79.118 350.91 79.118ZM353.472 83.122C353.472 82.646 353.379 82.24 353.192 81.904C353.006 81.5587 352.754 81.2973 352.436 81.12C352.119 80.9333 351.778 80.84 351.414 80.84C351.05 80.84 350.714 80.9287 350.406 81.106C350.098 81.2833 349.846 81.5447 349.65 81.89C349.464 82.226 349.37 82.6273 349.37 83.094C349.37 83.5607 349.464 83.9713 349.65 84.326C349.846 84.6713 350.098 84.9373 350.406 85.124C350.724 85.3107 351.06 85.404 351.414 85.404C351.778 85.404 352.119 85.3153 352.436 85.138C352.754 84.9513 353.006 84.69 353.192 84.354C353.379 84.0087 353.472 83.598 353.472 83.122ZM358.355 78.32C358.009 78.32 357.72 78.2127 357.487 77.998C357.263 77.774 357.151 77.4987 357.151 77.172C357.151 76.8453 357.263 76.5747 357.487 76.36C357.72 76.136 358.009 76.024 358.355 76.024C358.7 76.024 358.985 76.136 359.209 76.36C359.442 76.5747 359.559 76.8453 359.559 77.172C359.559 77.4987 359.442 77.774 359.209 77.998C358.985 78.2127 358.7 78.32 358.355 78.32ZM359.321 79.244V87H357.361V79.244H359.321ZM368.467 82.954C368.467 83.234 368.448 83.486 368.411 83.71H362.741C362.788 84.27 362.984 84.7087 363.329 85.026C363.674 85.3433 364.099 85.502 364.603 85.502C365.331 85.502 365.849 85.1893 366.157 84.564H368.271C368.047 85.3107 367.618 85.9267 366.983 86.412C366.348 86.888 365.569 87.126 364.645 87.126C363.898 87.126 363.226 86.9627 362.629 86.636C362.041 86.3 361.579 85.8287 361.243 85.222C360.916 84.6153 360.753 83.9153 360.753 83.122C360.753 82.3193 360.916 81.6147 361.243 81.008C361.57 80.4013 362.027 79.9347 362.615 79.608C363.203 79.2813 363.88 79.118 364.645 79.118C365.382 79.118 366.04 79.2767 366.619 79.594C367.207 79.9113 367.66 80.364 367.977 80.952C368.304 81.5307 368.467 82.198 368.467 82.954ZM366.437 82.394C366.428 81.89 366.246 81.4887 365.891 81.19C365.536 80.882 365.102 80.728 364.589 80.728C364.104 80.728 363.693 80.8773 363.357 81.176C363.03 81.4653 362.83 81.8713 362.755 82.394H366.437ZM372.866 87.126C372.231 87.126 371.662 87.014 371.158 86.79C370.654 86.5567 370.252 86.244 369.954 85.852C369.664 85.46 369.506 85.026 369.478 84.55H371.452C371.489 84.8487 371.634 85.096 371.886 85.292C372.147 85.488 372.469 85.586 372.852 85.586C373.225 85.586 373.514 85.5113 373.72 85.362C373.934 85.2127 374.042 85.0213 374.042 84.788C374.042 84.536 373.911 84.3493 373.65 84.228C373.398 84.0973 372.992 83.9573 372.432 83.808C371.853 83.668 371.377 83.5233 371.004 83.374C370.64 83.2247 370.322 82.996 370.052 82.688C369.79 82.38 369.66 81.9647 369.66 81.442C369.66 81.0127 369.781 80.6207 370.024 80.266C370.276 79.9113 370.63 79.6313 371.088 79.426C371.554 79.2207 372.1 79.118 372.726 79.118C373.65 79.118 374.387 79.3513 374.938 79.818C375.488 80.2753 375.792 80.896 375.848 81.68H373.972C373.944 81.372 373.813 81.1293 373.58 80.952C373.356 80.7653 373.052 80.672 372.67 80.672C372.315 80.672 372.04 80.7373 371.844 80.868C371.657 80.9987 371.564 81.1807 371.564 81.414C371.564 81.6753 371.694 81.876 371.956 82.016C372.217 82.1467 372.623 82.282 373.174 82.422C373.734 82.562 374.196 82.7067 374.56 82.856C374.924 83.0053 375.236 83.2387 375.498 83.556C375.768 83.864 375.908 84.2747 375.918 84.788C375.918 85.236 375.792 85.6373 375.54 85.992C375.297 86.3467 374.942 86.6267 374.476 86.832C374.018 87.028 373.482 87.126 372.866 87.126ZM388.184 79.244V87H386.21V86.02C385.958 86.356 385.627 86.622 385.216 86.818C384.815 87.0047 384.376 87.098 383.9 87.098C383.294 87.098 382.757 86.972 382.29 86.72C381.824 86.4587 381.455 86.0807 381.184 85.586C380.923 85.082 380.792 84.4847 380.792 83.794V79.244H382.752V83.514C382.752 84.13 382.906 84.606 383.214 84.942C383.522 85.2687 383.942 85.432 384.474 85.432C385.016 85.432 385.44 85.2687 385.748 84.942C386.056 84.606 386.21 84.13 386.21 83.514V79.244H388.184ZM393.086 87.126C392.452 87.126 391.882 87.014 391.378 86.79C390.874 86.5567 390.473 86.244 390.174 85.852C389.885 85.46 389.726 85.026 389.698 84.55H391.672C391.71 84.8487 391.854 85.096 392.106 85.292C392.368 85.488 392.69 85.586 393.072 85.586C393.446 85.586 393.735 85.5113 393.94 85.362C394.155 85.2127 394.262 85.0213 394.262 84.788C394.262 84.536 394.132 84.3493 393.87 84.228C393.618 84.0973 393.212 83.9573 392.652 83.808C392.074 83.668 391.598 83.5233 391.224 83.374C390.86 83.2247 390.543 82.996 390.272 82.688C390.011 82.38 389.88 81.9647 389.88 81.442C389.88 81.0127 390.002 80.6207 390.244 80.266C390.496 79.9113 390.851 79.6313 391.308 79.426C391.775 79.2207 392.321 79.118 392.946 79.118C393.87 79.118 394.608 79.3513 395.158 79.818C395.709 80.2753 396.012 80.896 396.068 81.68H394.192C394.164 81.372 394.034 81.1293 393.8 80.952C393.576 80.7653 393.273 80.672 392.89 80.672C392.536 80.672 392.26 80.7373 392.064 80.868C391.878 80.9987 391.784 81.1807 391.784 81.414C391.784 81.6753 391.915 81.876 392.176 82.016C392.438 82.1467 392.844 82.282 393.394 82.422C393.954 82.562 394.416 82.7067 394.78 82.856C395.144 83.0053 395.457 83.2387 395.718 83.556C395.989 83.864 396.129 84.2747 396.138 84.788C396.138 85.236 396.012 85.6373 395.76 85.992C395.518 86.3467 395.163 86.6267 394.696 86.832C394.239 87.028 393.702 87.126 393.086 87.126ZM404.957 82.954C404.957 83.234 404.939 83.486 404.901 83.71H399.231C399.278 84.27 399.474 84.7087 399.819 85.026C400.165 85.3433 400.589 85.502 401.093 85.502C401.821 85.502 402.339 85.1893 402.647 84.564H404.761C404.537 85.3107 404.108 85.9267 403.473 86.412C402.839 86.888 402.059 87.126 401.135 87.126C400.389 87.126 399.717 86.9627 399.119 86.636C398.531 86.3 398.069 85.8287 397.733 85.222C397.407 84.6153 397.243 83.9153 397.243 83.122C397.243 82.3193 397.407 81.6147 397.733 81.008C398.06 80.4013 398.517 79.9347 399.105 79.608C399.693 79.2813 400.37 79.118 401.135 79.118C401.873 79.118 402.531 79.2767 403.109 79.594C403.697 79.9113 404.15 80.364 404.467 80.952C404.794 81.5307 404.957 82.198 404.957 82.954ZM402.927 82.394C402.918 81.89 402.736 81.4887 402.381 81.19C402.027 80.882 401.593 80.728 401.079 80.728C400.594 80.728 400.183 80.8773 399.847 81.176C399.521 81.4653 399.32 81.8713 399.245 82.394H402.927ZM405.884 83.094C405.884 82.31 406.038 81.6147 406.346 81.008C406.663 80.4013 407.093 79.9347 407.634 79.608C408.175 79.2813 408.777 79.118 409.44 79.118C409.944 79.118 410.425 79.23 410.882 79.454C411.339 79.6687 411.703 79.958 411.974 80.322V76.64H413.962V87H411.974V85.852C411.731 86.2347 411.391 86.5427 410.952 86.776C410.513 87.0093 410.005 87.126 409.426 87.126C408.773 87.126 408.175 86.958 407.634 86.622C407.093 86.286 406.663 85.8147 406.346 85.208C406.038 84.592 405.884 83.8873 405.884 83.094ZM411.988 83.122C411.988 82.646 411.895 82.24 411.708 81.904C411.521 81.5587 411.269 81.2973 410.952 81.12C410.635 80.9333 410.294 80.84 409.93 80.84C409.566 80.84 409.23 80.9287 408.922 81.106C408.614 81.2833 408.362 81.5447 408.166 81.89C407.979 82.226 407.886 82.6273 407.886 83.094C407.886 83.5607 407.979 83.9713 408.166 84.326C408.362 84.6713 408.614 84.9373 408.922 85.124C409.239 85.3107 409.575 85.404 409.93 85.404C410.294 85.404 410.635 85.3153 410.952 85.138C411.269 84.9513 411.521 84.69 411.708 84.354C411.895 84.0087 411.988 83.598 411.988 83.122Z" fill="#0252CD"/>
<path d="M298.908 107.664V111.28H292.956V130H288.476V111.28H282.524V107.664H298.908ZM318.497 120.752C318.497 121.392 318.454 121.968 318.369 122.48H305.409C305.515 123.76 305.963 124.763 306.753 125.488C307.542 126.213 308.513 126.576 309.665 126.576C311.329 126.576 312.513 125.861 313.217 124.432H318.049C317.537 126.139 316.555 127.547 315.105 128.656C313.654 129.744 311.873 130.288 309.761 130.288C308.054 130.288 306.518 129.915 305.153 129.168C303.809 128.4 302.753 127.323 301.985 125.936C301.238 124.549 300.865 122.949 300.865 121.136C300.865 119.301 301.238 117.691 301.985 116.304C302.731 114.917 303.777 113.851 305.121 113.104C306.465 112.357 308.011 111.984 309.761 111.984C311.446 111.984 312.95 112.347 314.273 113.072C315.617 113.797 316.651 114.832 317.377 116.176C318.123 117.499 318.497 119.024 318.497 120.752ZM313.857 119.472C313.835 118.32 313.419 117.403 312.609 116.72C311.798 116.016 310.806 115.664 309.633 115.664C308.523 115.664 307.585 116.005 306.817 116.688C306.07 117.349 305.611 118.277 305.441 119.472H313.857ZM320.455 121.136C320.455 119.301 320.828 117.701 321.575 116.336C322.321 114.949 323.356 113.883 324.679 113.136C326.001 112.368 327.516 111.984 329.223 111.984C331.42 111.984 333.233 112.539 334.663 113.648C336.113 114.736 337.084 116.272 337.575 118.256H332.743C332.487 117.488 332.049 116.891 331.431 116.464C330.833 116.016 330.087 115.792 329.191 115.792C327.911 115.792 326.897 116.261 326.151 117.2C325.404 118.117 325.031 119.429 325.031 121.136C325.031 122.821 325.404 124.133 326.151 125.072C326.897 125.989 327.911 126.448 329.191 126.448C331.004 126.448 332.188 125.637 332.743 124.016H337.575C337.084 125.936 336.113 127.461 334.663 128.592C333.212 129.723 331.399 130.288 329.223 130.288C327.516 130.288 326.001 129.915 324.679 129.168C323.356 128.4 322.321 127.333 321.575 125.968C320.828 124.581 320.455 122.971 320.455 121.136ZM350.681 112.016C352.025 112.016 353.219 112.315 354.265 112.912C355.31 113.488 356.121 114.352 356.697 115.504C357.294 116.635 357.593 118 357.593 119.6V130H353.113V120.208C353.113 118.8 352.761 117.723 352.057 116.976C351.353 116.208 350.393 115.824 349.177 115.824C347.939 115.824 346.958 116.208 346.233 116.976C345.529 117.723 345.177 118.8 345.177 120.208V130H340.697V106.32H345.177V114.48C345.753 113.712 346.521 113.115 347.481 112.688C348.441 112.24 349.507 112.016 350.681 112.016ZM376.87 130.224C375.313 130.224 373.905 129.957 372.646 129.424C371.409 128.891 370.427 128.123 369.702 127.12C368.977 126.117 368.603 124.933 368.582 123.568H373.382C373.446 124.485 373.766 125.211 374.342 125.744C374.939 126.277 375.75 126.544 376.774 126.544C377.819 126.544 378.641 126.299 379.238 125.808C379.835 125.296 380.134 124.635 380.134 123.824C380.134 123.163 379.931 122.619 379.526 122.192C379.121 121.765 378.609 121.435 377.99 121.2C377.393 120.944 376.561 120.667 375.494 120.368C374.043 119.941 372.859 119.525 371.942 119.12C371.046 118.693 370.267 118.064 369.606 117.232C368.966 116.379 368.646 115.248 368.646 113.84C368.646 112.517 368.977 111.365 369.638 110.384C370.299 109.403 371.227 108.656 372.422 108.144C373.617 107.611 374.982 107.344 376.518 107.344C378.822 107.344 380.689 107.909 382.118 109.04C383.569 110.149 384.369 111.707 384.518 113.712H379.59C379.547 112.944 379.217 112.315 378.598 111.824C378.001 111.312 377.201 111.056 376.198 111.056C375.323 111.056 374.619 111.28 374.086 111.728C373.574 112.176 373.318 112.827 373.318 113.68C373.318 114.277 373.51 114.779 373.894 115.184C374.299 115.568 374.79 115.888 375.366 116.144C375.963 116.379 376.795 116.656 377.862 116.976C379.313 117.403 380.497 117.829 381.414 118.256C382.331 118.683 383.121 119.323 383.782 120.176C384.443 121.029 384.774 122.149 384.774 123.536C384.774 124.731 384.465 125.84 383.846 126.864C383.227 127.888 382.321 128.709 381.126 129.328C379.931 129.925 378.513 130.224 376.87 130.224ZM393.714 115.952V124.528C393.714 125.125 393.853 125.563 394.13 125.84C394.429 126.096 394.919 126.224 395.602 126.224H397.682V130H394.866C391.09 130 389.202 128.165 389.202 124.496V115.952H387.09V112.272H389.202V107.888H393.714V112.272H397.682V115.952H393.714ZM399.592 121.072C399.592 119.28 399.944 117.691 400.648 116.304C401.374 114.917 402.344 113.851 403.56 113.104C404.798 112.357 406.174 111.984 407.688 111.984C409.011 111.984 410.163 112.251 411.144 112.784C412.147 113.317 412.947 113.989 413.544 114.8V112.272H418.056V130H413.544V127.408C412.968 128.24 412.168 128.933 411.144 129.488C410.142 130.021 408.979 130.288 407.656 130.288C406.163 130.288 404.798 129.904 403.56 129.136C402.344 128.368 401.374 127.291 400.648 125.904C399.944 124.496 399.592 122.885 399.592 121.072ZM413.544 121.136C413.544 120.048 413.331 119.12 412.904 118.352C412.478 117.563 411.902 116.965 411.176 116.56C410.451 116.133 409.672 115.92 408.84 115.92C408.008 115.92 407.24 116.123 406.536 116.528C405.832 116.933 405.256 117.531 404.808 118.32C404.382 119.088 404.168 120.005 404.168 121.072C404.168 122.139 404.382 123.077 404.808 123.888C405.256 124.677 405.832 125.285 406.536 125.712C407.262 126.139 408.03 126.352 408.84 126.352C409.672 126.352 410.451 126.149 411.176 125.744C411.902 125.317 412.478 124.72 412.904 123.952C413.331 123.163 413.544 122.224 413.544 121.136ZM421.12 121.136C421.12 119.301 421.493 117.701 422.24 116.336C422.986 114.949 424.021 113.883 425.344 113.136C426.666 112.368 428.181 111.984 429.888 111.984C432.085 111.984 433.898 112.539 435.328 113.648C436.778 114.736 437.749 116.272 438.24 118.256H433.408C433.152 117.488 432.714 116.891 432.096 116.464C431.498 116.016 430.752 115.792 429.856 115.792C428.576 115.792 427.562 116.261 426.816 117.2C426.069 118.117 425.696 119.429 425.696 121.136C425.696 122.821 426.069 124.133 426.816 125.072C427.562 125.989 428.576 126.448 429.856 126.448C431.669 126.448 432.853 125.637 433.408 124.016H438.24C437.749 125.936 436.778 127.461 435.328 128.592C433.877 129.723 432.064 130.288 429.888 130.288C428.181 130.288 426.666 129.915 425.344 129.168C424.021 128.4 422.986 127.333 422.24 125.968C421.493 124.581 421.12 122.971 421.12 121.136ZM451.858 130L445.842 122.448V130H441.362V106.32H445.842V119.792L451.794 112.272H457.618L449.81 121.168L457.682 130H451.858Z" fill="#151E2C"/>
<circle cx="328.11" cy="226.61" r="46.6102" fill="#F3F8FF"/>
<path d="M332.012 226.575C332.012 224.486 330.265 222.792 328.11 222.792C325.955 222.792 324.208 224.486 324.208 226.575C324.208 228.665 325.955 230.358 328.11 230.358C330.265 230.358 332.012 228.665 332.012 226.575Z" fill="#53C1DE"/>
<path fill-rule="evenodd" clip-rule="evenodd" d="M340.782 219.551C341.606 216.305 342.642 210.284 338.99 208.243C335.356 206.211 330.627 210.105 328.13 212.442C325.64 210.128 320.777 206.251 317.129 208.298C313.496 210.337 314.617 216.258 315.459 219.525C312.07 220.458 306.261 222.468 306.261 226.575C306.261 230.67 312.064 232.857 315.433 233.789C314.587 237.074 313.523 242.91 317.161 244.945C320.822 246.992 325.67 243.207 328.19 240.844C330.703 243.195 335.387 247.005 339.022 244.965C342.669 242.918 341.719 236.979 340.877 233.693C344.142 232.758 349.958 230.619 349.958 226.575C349.958 222.508 344.117 220.481 340.782 219.551ZM340.368 231.951C339.815 230.254 339.068 228.449 338.155 226.584C339.027 224.763 339.744 222.982 340.282 221.295C342.727 221.982 348.091 223.553 348.091 226.575C348.091 229.625 342.944 231.211 340.368 231.951ZM338.087 243.399C335.375 244.921 331.346 241.277 329.49 239.546C330.721 238.24 331.952 236.722 333.153 235.036C335.265 234.855 337.261 234.558 339.071 234.152C339.664 236.476 340.811 241.87 338.087 243.399ZM318.093 243.377C315.381 241.86 316.621 236.653 317.243 234.233C319.032 234.617 321.014 234.893 323.131 235.059C324.34 236.709 325.606 238.225 326.882 239.553C325.306 241.031 320.818 244.9 318.093 243.377ZM308.127 226.575C308.127 223.514 313.459 221.954 315.96 221.268C316.507 222.993 317.224 224.796 318.09 226.619C317.213 228.47 316.486 230.301 315.934 232.046C313.549 231.384 308.127 229.639 308.127 226.575ZM318.064 209.865C320.788 208.336 325.014 212.059 326.822 213.734C325.552 215.056 324.298 216.561 323.099 218.201C321.044 218.385 319.077 218.682 317.268 219.079C316.59 216.444 315.344 211.392 318.064 209.865ZM334.488 220.168C335.882 220.338 337.218 220.565 338.472 220.843C338.096 222.013 337.626 223.237 337.074 224.491C336.272 223.017 335.412 221.573 334.488 220.168ZM328.13 215.028C328.991 215.932 329.853 216.942 330.702 218.038C328.981 217.959 327.258 217.958 325.537 218.036C326.386 216.951 327.256 215.943 328.13 215.028ZM319.161 224.49C318.617 223.24 318.152 222.011 317.772 220.824C319.019 220.553 320.349 220.332 321.734 220.165C320.807 221.566 319.948 223.01 319.161 224.49ZM321.774 233.115C320.343 232.96 318.993 232.75 317.747 232.487C318.132 231.279 318.608 230.024 319.163 228.747C319.961 230.242 320.833 231.7 321.774 233.115ZM328.182 238.25C327.297 237.325 326.415 236.301 325.553 235.2C327.283 235.266 329.017 235.266 330.747 235.191C329.896 236.312 329.037 237.337 328.182 238.25ZM337.091 228.682C337.676 229.973 338.168 231.221 338.559 232.409C337.292 232.689 335.924 232.915 334.483 233.082C335.414 231.651 336.288 230.184 337.091 228.682ZM332.111 233.302C329.464 233.485 326.801 233.483 324.153 233.317C322.648 231.186 321.309 228.945 320.153 226.619C321.304 224.297 322.633 222.06 324.13 219.933C326.78 219.739 329.446 219.738 332.096 219.934C333.58 222.061 334.908 224.292 336.085 226.593C334.922 228.913 333.585 231.154 332.111 233.302ZM338.058 209.811C340.782 211.334 339.57 216.745 338.975 219.098C337.162 218.692 335.193 218.391 333.132 218.203C331.931 216.545 330.687 215.038 329.438 213.733C331.269 212.022 335.36 208.302 338.058 209.811Z" fill="#53C1DE"/>
<circle cx="458.396" cy="226.61" r="46.6102" fill="#F3F8FF"/>
<path d="M466.826 234.703C468.439 234.539 469.662 233.172 469.607 231.532C469.551 229.892 468.161 228.58 466.493 228.58H466.381C464.657 228.634 463.323 230.056 463.379 231.751C463.434 232.571 463.768 233.281 464.268 233.773C462.378 237.436 459.486 240.115 455.149 242.357C452.202 243.887 449.143 244.434 446.085 244.051C443.583 243.723 441.637 242.63 440.413 240.826C438.634 238.147 438.467 235.249 439.968 232.352C441.025 230.275 442.693 228.744 443.75 227.978C443.527 227.268 443.193 226.065 443.027 225.19C434.964 230.931 435.798 238.694 438.245 242.357C440.08 245.09 443.805 246.785 447.92 246.785C449.032 246.785 450.144 246.675 451.257 246.402C458.374 245.036 463.768 240.881 466.826 234.703ZM476.613 227.924C472.387 223.058 466.159 220.379 459.041 220.379H458.152C457.651 219.395 456.595 218.739 455.427 218.739H455.316C453.592 218.794 452.258 220.215 452.313 221.91C452.369 223.55 453.759 224.862 455.427 224.862H455.538C456.761 224.808 457.818 224.042 458.263 223.003H459.264C463.49 223.003 467.493 224.206 471.108 226.557C473.888 228.361 475.89 230.712 477.002 233.555C477.948 235.851 477.892 238.092 476.891 240.006C475.334 242.903 472.721 244.489 469.273 244.489C467.049 244.489 464.936 243.833 463.823 243.341C463.212 243.887 462.1 244.762 461.321 245.309C463.712 246.402 466.159 247.004 468.494 247.004C473.833 247.004 477.781 244.106 479.282 241.209C480.895 238.038 480.783 232.571 476.613 227.924ZM448.365 235.632C448.421 237.272 449.811 238.584 451.479 238.584H451.59C453.314 238.53 454.648 237.108 454.593 235.413C454.537 233.773 453.147 232.461 451.479 232.461H451.368C451.257 232.461 451.09 232.461 450.979 232.516C448.699 228.798 447.753 224.753 448.087 220.379C448.309 217.099 449.422 214.256 451.368 211.905C452.98 209.882 456.094 208.898 458.207 208.844C464.102 208.734 466.604 215.951 466.771 218.848C467.493 219.012 468.717 219.395 469.551 219.669C468.884 210.812 463.323 206.22 457.985 206.22C452.98 206.22 448.365 209.773 446.53 215.022C443.972 222.019 445.64 228.744 448.754 234.047C448.476 234.429 448.309 235.031 448.365 235.632Z" fill="#764ABC"/>
<circle cx="588.682" cy="226.61" r="46.6102" fill="#F3F8FF"/>
<g clip-path="url(#clip0_3316_22001)">
<path d="M587.156 203.318C587.055 203.327 586.737 203.359 586.449 203.381C579.829 203.978 573.628 207.55 569.701 213.039C567.514 216.091 566.115 219.554 565.587 223.221C565.4 224.501 565.377 224.879 565.377 226.615C565.377 228.35 565.4 228.728 565.587 230.009C566.853 238.76 573.082 246.112 581.529 248.837C583.041 249.324 584.636 249.657 586.449 249.857C587.156 249.935 590.208 249.935 590.915 249.857C594.045 249.511 596.696 248.736 599.312 247.402C599.713 247.197 599.79 247.142 599.735 247.096C599.699 247.069 597.99 244.778 595.94 242.008L592.213 236.974L587.543 230.063C584.973 226.264 582.859 223.157 582.841 223.157C582.823 223.152 582.805 226.223 582.795 229.972C582.782 236.537 582.777 236.801 582.695 236.956C582.577 237.179 582.486 237.27 582.294 237.37C582.148 237.443 582.021 237.457 581.333 237.457H580.545L580.335 237.325C580.198 237.238 580.098 237.124 580.03 236.992L579.934 236.787L579.943 227.653L579.957 218.515L580.098 218.337C580.171 218.242 580.326 218.119 580.435 218.059C580.622 217.968 580.695 217.959 581.483 217.959C582.413 217.959 582.568 217.996 582.809 218.26C582.877 218.333 585.406 222.141 588.431 226.729C591.457 231.316 595.594 237.58 597.626 240.655L601.316 246.245L601.503 246.122C603.157 245.046 604.907 243.516 606.292 241.921C609.24 238.537 611.14 234.409 611.778 230.009C611.964 228.728 611.987 228.35 611.987 226.615C611.987 224.879 611.964 224.501 611.778 223.221C610.511 214.47 604.283 207.117 595.835 204.393C594.345 203.91 592.76 203.577 590.983 203.377C590.546 203.331 587.534 203.281 587.156 203.318ZM596.696 217.412C596.915 217.522 597.093 217.731 597.157 217.95C597.193 218.068 597.202 220.601 597.193 226.309L597.179 234.5L595.735 232.286L594.286 230.072V224.118C594.286 220.269 594.304 218.105 594.332 218C594.405 217.745 594.564 217.545 594.783 217.426C594.97 217.33 595.038 217.321 595.753 217.321C596.428 217.321 596.546 217.33 596.696 217.412Z" fill="#151E2C"/>
</g>
<circle cx="718.969" cy="226.61" r="46.6102" fill="#F3F8FF"/>
<g clip-path="url(#clip1_3316_22001)">
<path d="M735.282 203.305H702.655C698.793 203.305 695.663 206.435 695.663 210.297V242.924C695.663 246.785 698.793 249.915 702.655 249.915H735.282C739.143 249.915 742.273 246.785 742.273 242.924V210.297C742.273 206.435 739.143 203.305 735.282 203.305Z" fill="#3178C6"/>
<path d="M716.874 229.159H722.701V225.427H706.405V229.159H712.232V245.819H716.874V229.159ZM724.521 244.908C725.259 245.291 726.16 245.573 727.161 245.764C728.163 245.955 729.255 246.046 730.348 246.046C731.44 246.046 732.441 245.946 733.443 245.737C734.444 245.527 735.264 245.181 735.992 244.735C736.729 244.253 737.357 243.643 737.721 242.824C738.086 242.004 738.368 241.094 738.368 239.91C738.368 239.082 738.24 238.363 737.995 237.726C737.749 237.088 737.394 236.542 736.902 236.087C736.438 235.604 735.901 235.177 735.264 234.812C734.626 234.448 733.898 234.066 733.079 233.72C732.478 233.474 731.986 233.238 731.44 233.001C730.967 232.764 730.557 232.527 730.257 232.291C729.92 232.045 729.665 231.79 729.483 231.526C729.301 231.253 729.21 230.953 729.21 230.616C729.21 230.306 729.291 230.024 729.455 229.769C729.62 229.514 729.847 229.305 730.138 229.123C730.43 228.941 730.794 228.804 731.231 228.704C731.659 228.604 732.132 228.558 732.687 228.558C733.07 228.558 733.47 228.587 733.871 228.644C734.289 228.701 734.717 228.79 735.145 228.908C735.573 229.026 735.992 229.172 736.42 229.354C736.82 229.536 737.193 229.745 737.512 229.982V225.703C736.82 225.439 736.056 225.239 735.236 225.112C734.417 224.984 733.507 224.921 732.414 224.921C731.322 224.921 730.32 225.039 729.319 225.266C728.318 225.494 727.498 225.858 726.77 226.359C726.033 226.85 725.495 227.451 725.04 228.271C724.612 229.035 724.403 229.909 724.403 231.002C724.403 232.367 724.794 233.551 725.586 234.461C726.369 235.462 727.589 236.191 729.137 236.919C729.765 237.174 730.32 237.429 730.867 237.675C731.413 237.92 731.868 238.175 732.232 238.439C732.623 238.703 732.933 238.995 733.142 239.304C733.37 239.614 733.488 239.978 733.488 240.397C733.488 240.688 733.417 240.961 733.279 241.216C733.141 241.471 732.924 241.689 732.633 241.871C732.341 242.053 731.986 242.199 731.54 242.308C731.112 242.408 730.63 242.463 729.993 242.463C728.991 242.463 727.99 242.29 727.079 241.944C726.078 241.598 725.168 241.079 724.521 240.539V244.908Z" fill="white"/>
</g>
<circle cx="849.254" cy="226.61" r="46.6102" fill="#F3F8FF"/>
<g clip-path="url(#clip2_3316_22001)">
<path d="M832.413 245.181L828.681 203.305H869.738L866.005 245.181L849.164 249.915" fill="#E34F26"/>
<path d="M849.255 246.274L862.819 242.541L866.005 206.673H849.255" fill="#EF652A"/>
<path d="M849.254 222.24H842.427L841.971 216.96H849.254V211.862H836.327L837.693 227.429H849.254V222.24ZM849.163 235.623L843.428 234.075L843.064 229.978H837.966L838.603 238.081L849.163 240.994V235.623Z" fill="#EBEBEB"/>
<path d="M849.163 222.24V227.429H855.536L854.898 234.075L849.163 235.623V240.994L859.723 238.081L861.18 222.24H849.163ZM849.163 211.862V216.96H861.635L862.09 211.862H849.163Z" fill="white"/>
</g>
<circle cx="979.54" cy="226.61" r="46.6102" fill="#F3F8FF"/>
<g clip-path="url(#clip3_3316_22001)">
<path d="M962.788 245.181L958.965 203.305H1000.02L996.289 245.181L979.539 249.915" fill="#264DE4"/>
<path d="M979.539 206.673V246.274L993.103 242.541L996.29 206.673" fill="#2965F1"/>
<path d="M966.612 211.862H979.539V216.96H967.067M967.523 222.24H979.539V227.429H967.978M968.251 229.978H973.349L973.713 234.075L979.539 235.623V240.994L968.888 238.081" fill="#EBEBEB"/>
<path d="M979.539 222.24V227.429H985.821L985.183 234.075L979.539 235.623V240.994L990.008 238.081L992.375 211.862H979.539V216.96H986.822L986.321 222.24H979.539Z" fill="white"/>
</g>
<circle cx="1109.83" cy="226.61" r="46.6102" fill="#F3F8FF"/>
<g clip-path="url(#clip4_3316_22001)">
<path d="M1126.14 203.305H1093.51C1089.65 203.305 1086.52 206.435 1086.52 210.297V242.924C1086.52 246.785 1089.65 249.915 1093.51 249.915H1126.14C1130 249.915 1133.13 246.785 1133.13 242.924V210.297C1133.13 206.435 1130 203.305 1126.14 203.305Z" fill="#CC6699"/>
<path d="M1110.01 211.316C1101.27 214.32 1095.62 220.42 1096.17 224.061C1096.72 227.703 1102.18 230.616 1104.64 232.528C1101.45 234.166 1097.44 236.624 1097.54 239.81C1097.72 244.18 1102.45 242.815 1104.45 241.54C1106.46 240.266 1108.46 236.715 1107.19 232.983C1110.01 232.254 1112.47 233.165 1113.19 233.711C1116.02 235.714 1114.56 237.99 1113.56 238.354C1112.56 238.718 1113.19 238.9 1113.83 238.718C1114.47 238.536 1115.83 237.626 1115.83 236.078C1115.83 232.163 1111.65 230.343 1106.46 231.708C1103.45 228.522 1099.36 227.065 1099.54 223.606C1099.63 222.332 1100.08 219.054 1108.19 214.958C1116.29 210.861 1122.02 212.5 1121.3 216.232C1120.2 221.876 1110.37 225.7 1106.91 222.423C1106.73 222.058 1106.09 221.785 1106.46 222.787C1108.28 227.339 1123.03 225.245 1123.66 215.595C1123.84 210.497 1116.47 209.131 1110.01 211.316ZM1102.18 240.448C1099.9 241.176 1099.99 239.719 1100.08 239.173C1100.36 237.626 1101.63 235.714 1105.46 233.802C1106.55 237.261 1104.09 239.901 1102.18 240.448Z" fill="white"/>
</g>
<circle cx="331.833" cy="353.39" r="46.6102" fill="#F3F8FF"/>
<path d="M321.636 350.04C322.996 344.602 326.395 341.883 331.832 341.883C339.989 341.883 341.009 348.001 345.087 349.02C347.806 349.7 350.185 348.68 352.224 345.961C350.865 351.399 347.466 354.118 342.028 354.118C333.872 354.118 332.852 348.001 328.774 346.981C326.055 346.301 323.676 347.321 321.636 350.04ZM311.44 362.275C312.8 356.837 316.199 354.118 321.636 354.118C329.793 354.118 330.813 360.236 334.891 361.255C337.61 361.935 339.989 360.915 342.028 358.196C340.669 363.634 337.27 366.353 331.832 366.353C323.676 366.353 322.656 360.236 318.578 359.216C315.859 358.536 313.48 359.556 311.44 362.275Z" fill="#44A8B3"/>
<circle cx="462.119" cy="353.39" r="46.6102" fill="#F3F8FF"/>
<g clip-path="url(#clip5_3316_22001)">
<path d="M485.423 330.085V353.39L462.118 376.695L450.466 365.042L462.118 353.39L485.423 330.085Z" fill="#59529D"/>
<path d="M485.424 353.39V376.695L473.771 365.042L485.424 353.39Z" fill="#5271B4"/>
<path d="M462.119 353.39L438.813 376.695V330.085L462.119 353.39Z" fill="#BB4B96"/>
</g>
<circle cx="592.404" cy="353.39" r="46.6102" fill="#F3F8FF"/>
<path d="M572.865 355.448C571.728 354.311 571.728 352.468 572.865 351.331L590.346 333.851C591.483 332.714 593.326 332.714 594.463 333.851L611.944 351.331C613.081 352.468 613.081 354.311 611.944 355.448L594.463 372.929C593.326 374.066 591.483 374.066 590.346 372.929L572.865 355.448Z" fill="#EE513B"/>
<path d="M586.796 337.457L585.025 339.227L589.597 343.799C589.412 344.196 589.309 344.639 589.309 345.105C589.309 346.43 590.142 347.561 591.312 348.002V359.187C590.142 359.628 589.309 360.759 589.309 362.083C589.309 363.793 590.695 365.179 592.404 365.179C594.114 365.179 595.5 363.793 595.5 362.083C595.5 360.882 594.815 359.841 593.815 359.328V348.018L598.186 352.388C598.01 352.777 597.912 353.208 597.912 353.663C597.912 355.372 599.298 356.758 601.007 356.758C602.717 356.758 604.102 355.372 604.102 353.663C604.102 351.953 602.717 350.568 601.007 350.568C600.675 350.568 600.355 350.62 600.055 350.717L595.361 346.023C595.451 345.733 595.5 345.425 595.5 345.105C595.5 343.396 594.114 342.01 592.404 342.01C592.085 342.01 591.777 342.059 591.487 342.148L586.796 337.457Z" fill="white"/>
<circle cx="722.691" cy="353.39" r="46.6102" fill="#F3F8FF"/>
<g clip-path="url(#clip6_3316_22001)">
<path fill-rule="evenodd" clip-rule="evenodd" d="M722.689 330.57C709.821 330.57 699.386 341.045 699.386 353.969C699.386 364.305 706.063 373.075 715.325 376.169C716.49 376.384 716.916 375.662 716.916 375.042C716.916 374.486 716.895 373.015 716.883 371.063C710.4 372.477 709.033 367.926 709.033 367.926C707.974 365.223 706.446 364.504 706.446 364.504C704.329 363.052 706.606 363.081 706.606 363.081C708.944 363.246 710.175 365.492 710.175 365.492C712.254 369.068 715.629 368.036 716.958 367.436C717.169 365.924 717.772 364.893 718.438 364.308C713.262 363.717 707.822 361.711 707.822 352.745C707.822 350.191 708.73 348.102 710.221 346.466C709.981 345.874 709.181 343.496 710.448 340.274C710.448 340.274 712.406 339.646 716.857 342.673C718.717 342.154 720.71 341.895 722.692 341.884C724.672 341.895 726.666 342.154 728.527 342.673C732.976 339.646 734.929 340.274 734.929 340.274C736.201 343.496 735.401 345.874 735.16 346.466C736.655 348.102 737.557 350.191 737.557 352.745C737.557 361.733 732.108 363.711 726.916 364.29C727.752 365.013 728.498 366.44 728.498 368.623C728.498 371.751 728.469 374.274 728.469 375.042C728.469 375.667 728.889 376.396 730.071 376.166C739.325 373.066 745.996 364.302 745.996 353.969C745.996 341.045 735.561 330.57 722.689 330.57Z" fill="#3E75C3"/>
</g>
<circle cx="852.976" cy="353.39" r="46.6102" fill="#F3F8FF"/>
<g clip-path="url(#clip7_3316_22001)">
<path d="M852.977 376.608C852.336 376.608 851.737 376.437 851.182 376.138L845.497 372.762C844.642 372.292 845.07 372.121 845.326 372.035C846.48 371.65 846.694 371.565 847.891 370.881C848.019 370.796 848.19 370.838 848.318 370.924L852.678 373.531C852.849 373.617 853.062 373.617 853.191 373.531L870.244 363.658C870.415 363.572 870.501 363.401 870.501 363.188V343.484C870.501 343.27 870.415 343.099 870.244 343.014L853.191 333.183C853.02 333.098 852.806 333.098 852.678 333.183L835.624 343.014C835.453 343.099 835.368 343.313 835.368 343.484V363.188C835.368 363.359 835.453 363.572 835.624 363.658L840.283 366.351C842.805 367.633 844.386 366.137 844.386 364.641V345.194C844.386 344.937 844.6 344.681 844.899 344.681H847.079C847.335 344.681 847.592 344.895 847.592 345.194V364.641C847.592 368.017 845.754 369.984 842.548 369.984C841.565 369.984 840.796 369.984 838.616 368.915L834.128 366.351C833.017 365.709 832.333 364.513 832.333 363.23V343.527C832.333 342.245 833.017 341.048 834.128 340.407L851.182 330.533C852.25 329.935 853.704 329.935 854.772 330.533L871.826 340.407C872.937 341.048 873.621 342.245 873.621 343.527V363.23C873.621 364.513 872.937 365.709 871.826 366.351L854.772 376.224C854.216 376.48 853.575 376.608 852.977 376.608ZM858.234 363.059C850.754 363.059 849.216 359.64 849.216 356.734C849.216 356.477 849.429 356.221 849.729 356.221H851.951C852.208 356.221 852.421 356.392 852.421 356.648C852.763 358.914 853.746 360.025 858.277 360.025C861.867 360.025 863.406 359.213 863.406 357.289C863.406 356.178 862.978 355.366 857.379 354.81C852.721 354.34 849.814 353.315 849.814 349.596C849.814 346.134 852.721 344.082 857.593 344.082C863.064 344.082 865.757 345.963 866.098 350.066C866.098 350.194 866.056 350.323 865.97 350.451C865.885 350.536 865.757 350.622 865.628 350.622H863.406C863.192 350.622 862.978 350.451 862.936 350.237C862.423 347.886 861.098 347.117 857.593 347.117C853.661 347.117 853.191 348.485 853.191 349.511C853.191 350.75 853.746 351.135 859.046 351.819C864.303 352.502 866.782 353.485 866.782 357.161C866.74 360.922 863.662 363.059 858.234 363.059Z" fill="#539E43"/>
</g>
<circle cx="983.263" cy="353.39" r="46.6102" fill="#F3F8FF"/>
<path d="M1003.77 364.904C1002.28 365.276 1001.36 364.92 1000.53 363.703L994.64 355.724L993.789 354.619L986.913 363.729C986.127 364.825 985.303 365.302 983.836 364.914L992.642 353.338L984.444 342.881C985.854 342.612 986.828 342.749 987.693 343.986L993.801 352.063L999.953 344.029C1000.74 342.934 1001.59 342.517 1003 342.921L999.825 347.049L995.518 352.541C995.006 353.168 995.076 353.597 995.548 354.204L1003.77 364.904ZM962.765 353.144L963.485 349.675C965.447 342.808 973.483 339.955 979.026 344.198C982.265 346.693 983.07 350.223 982.91 354.177H964.652C964.378 361.295 969.609 365.591 976.278 363.399C978.617 362.629 979.995 360.836 980.684 358.591C981.034 357.466 981.614 357.291 982.693 357.612C982.142 360.419 980.898 362.764 978.271 364.231C974.345 366.428 968.741 365.718 965.793 362.665C964.037 360.893 963.311 358.649 962.986 356.249C962.934 355.852 962.832 355.474 962.755 355.094C962.762 354.444 962.765 353.795 962.765 353.146V353.144ZM964.685 352.667H981.184C981.077 347.521 977.804 343.865 973.332 343.834C968.423 343.796 964.898 347.365 964.685 352.667Z" fill="#151E2C"/>
<circle cx="1113.55" cy="353.39" r="46.6102" fill="#F3F8FF"/>
<g clip-path="url(#clip8_3316_22001)">
<path d="M1113.55 376.695C1126.42 376.695 1136.85 366.261 1136.85 353.39C1136.85 340.519 1126.42 330.085 1113.55 330.085C1100.68 330.085 1090.24 340.519 1090.24 353.39C1090.24 366.261 1100.68 376.695 1113.55 376.695Z" fill="#13AA52"/>
<path d="M1119.78 350.542C1118.31 344.046 1114.83 341.909 1114.45 341.093C1114.04 340.517 1113.63 339.493 1113.63 339.493C1113.62 339.476 1113.61 339.445 1113.6 339.416C1113.55 339.992 1113.53 340.214 1112.99 340.795C1112.15 341.454 1107.82 345.083 1107.47 352.464C1107.14 359.348 1112.44 363.45 1113.16 363.973L1113.24 364.031V364.026C1113.24 364.061 1113.47 365.665 1113.62 367.364H1114.19C1114.32 366.163 1114.52 364.97 1114.78 363.79L1114.82 363.76C1115.14 363.53 1115.45 363.28 1115.74 363.011L1115.77 362.982C1117.3 361.574 1120.03 358.318 1120.01 353.126C1120 352.26 1119.93 351.396 1119.78 350.542ZM1113.56 360.086C1113.56 360.086 1113.56 350.431 1113.88 350.433C1114.13 350.433 1114.45 362.887 1114.45 362.887C1114.01 362.834 1113.56 360.837 1113.56 360.086Z" fill="white"/>
</g>
<defs>
<clipPath id="clip0_3316_22001">
<rect width="46.6102" height="46.6102" fill="white" transform="translate(565.377 203.305)"/>
</clipPath>
<clipPath id="clip1_3316_22001">
<rect width="46.6102" height="46.6102" fill="white" transform="translate(695.663 203.305)"/>
</clipPath>
<clipPath id="clip2_3316_22001">
<rect width="46.6102" height="46.6102" fill="white" transform="translate(825.949 203.305)"/>
</clipPath>
<clipPath id="clip3_3316_22001">
<rect width="46.6102" height="46.6102" fill="white" transform="translate(956.234 203.305)"/>
</clipPath>
<clipPath id="clip4_3316_22001">
<rect width="46.6102" height="46.6102" fill="white" transform="translate(1086.52 203.305)"/>
</clipPath>
<clipPath id="clip5_3316_22001">
<rect width="46.6102" height="46.6102" fill="white" transform="translate(438.813 330.085)"/>
</clipPath>
<clipPath id="clip6_3316_22001">
<rect width="46.6102" height="46.6102" fill="white" transform="translate(699.386 330.085)"/>
</clipPath>
<clipPath id="clip7_3316_22001">
<rect width="46.6102" height="46.6102" fill="white" transform="translate(829.671 330.085)"/>
</clipPath>
<clipPath id="clip8_3316_22001">
<rect width="46.6102" height="46.6102" fill="white" transform="translate(1090.24 330.085)"/>
</clipPath>
</defs>
</svg>
