<svg width="38" height="50" viewBox="0 0 38 50" fill="none" xmlns="http://www.w3.org/2000/svg">
<path d="M25.2064 0.353253C25.016 0.165504 24.7664 0.0489394 24.5003 0.0226901L24.2499 0H6.22015C3.07558 0.00133472 0.526725 2.55019 0.525391 5.69476V44.3052C0.526725 47.4498 3.07558 49.9987 6.22015 50H32.1429C35.2875 49.9987 37.8363 47.4498 37.8376 44.3052V42.2667H35.5597V44.3052C35.554 46.1899 34.0275 47.7168 32.1429 47.7221H6.22015C4.33554 47.7168 2.80863 46.1899 2.80329 44.3052V5.69476C2.80863 3.81015 4.33554 2.28324 6.22015 2.2779H23.2359V8.90652C23.2373 12.0511 25.7861 14.6004 28.9307 14.6013H35.5597V20.6377H37.8376V13.4396C37.8354 13.1375 37.7171 12.8484 37.5071 12.6308L25.2064 0.353253ZM25.5138 8.90652V3.88401L33.9652 12.3234H28.9307C27.0461 12.318 25.5196 10.7916 25.5138 8.90652Z" fill="#0635C9"/>
</svg>
