<svg width="50" height="50" viewBox="0 0 50 50" fill="none" xmlns="http://www.w3.org/2000/svg">
<path d="M10.9689 31.3897C10.9689 34.1931 8.69 36.4816 5.88667 36.4816C4.53805 36.4778 3.24588 35.9399 2.29294 34.9856C1.34 34.0313 0.803914 32.7383 0.802002 31.3897C0.804552 30.0415 1.34092 28.7492 2.29379 27.7954C3.24666 26.8416 4.53847 26.3041 5.88667 26.3002H10.9689V31.3897ZM13.533 31.3897C13.533 28.5864 15.8143 26.3002 18.6177 26.3002C19.9654 26.3047 21.2566 26.8426 22.209 27.7963C23.1613 28.75 23.6974 30.0419 23.6999 31.3897V44.1352C23.6974 45.483 23.1613 46.775 22.209 47.7287C21.2566 48.6824 19.9654 49.2202 18.6177 49.2247C17.2691 49.2222 15.9765 48.685 15.0234 47.7309C14.0702 46.7769 13.5343 45.4838 13.533 44.1352V31.3897ZM18.6177 10.9568C15.8143 10.9568 13.533 8.66581 13.533 5.86489C13.533 3.06397 15.8143 0.775391 18.6177 0.775391C19.9654 0.77986 21.2566 1.31774 22.209 2.27144C23.1613 3.22515 23.6974 4.51711 23.6999 5.86489V10.9568H18.6177ZM18.6177 13.5185C19.9659 13.5229 21.2574 14.0612 22.2098 15.0154C23.1623 15.9696 23.698 17.2622 23.6999 18.6104C23.6974 19.9582 23.1613 21.2501 22.209 22.2038C21.2566 23.1575 19.9654 23.6954 18.6177 23.6999H5.88909C4.54089 23.6961 3.24908 23.1585 2.29621 22.2047C1.34334 21.2509 0.806969 19.9586 0.804419 18.6104C0.806331 17.2618 1.34242 15.9688 2.29536 15.0145C3.2483 14.0602 4.54047 13.5223 5.88909 13.5185H18.6177ZM39.0313 18.6104C39.0313 15.8071 41.3102 13.5185 44.1135 13.5185C45.4621 13.5223 46.7543 14.0602 47.7072 15.0145C48.6602 15.9688 49.1963 17.2618 49.1982 18.6104C49.1956 19.9586 48.6593 21.2509 47.7064 22.2047C46.7535 23.1585 45.4617 23.6961 44.1135 23.6999H39.0313V18.6104ZM36.4672 18.6104C36.4672 21.4137 34.1858 23.6999 31.3825 23.6999C30.0347 23.6954 28.7435 23.1575 27.7912 22.2038C26.8388 21.2501 26.3028 19.9582 26.3003 18.6104V5.86489C26.3028 4.51711 26.8388 3.22515 27.7912 2.27144C28.7435 1.31774 30.0347 0.77986 31.3825 0.775391C34.1858 0.775391 36.4672 3.06156 36.4672 5.86489V18.6104ZM31.3825 39.0433C34.1858 39.0433 36.4672 41.3343 36.4672 44.1352C36.4672 46.9361 34.1858 49.2247 31.3825 49.2247C30.0347 49.2202 28.7435 48.6824 27.7912 47.7287C26.8388 46.775 26.3028 45.483 26.3003 44.1352V39.0433H31.3825ZM31.3825 36.4816C30.0343 36.4772 28.7428 35.9389 27.7903 34.9847C26.8379 34.0305 26.3022 32.7379 26.3003 31.3897C26.3028 30.0419 26.8388 28.75 27.7912 27.7963C28.7435 26.8426 30.0347 26.3047 31.3825 26.3002H44.1135C45.4617 26.3041 46.7535 26.8416 47.7064 27.7954C48.6593 28.7492 49.1956 30.0415 49.1982 31.3897C49.1963 32.7383 48.6602 34.0313 47.7072 34.9856C46.7543 35.9399 45.4621 36.4778 44.1135 36.4816H31.3825Z" fill="#151E2C"/>
</svg>
